<svg id="Слой_1" data-name="Слой 1" xmlns="http://www.w3.org/2000/svg" viewBox="0 0 567.86 417.01"><defs><style>.cls-1{fill:#757576;}.cls-2{fill:#8c8c8c;}.cls-3{fill:#646463;}.cls-4{fill:#545454;}.cls-5{fill:#444;}.cls-6{fill:#a7a7a6;opacity:0.68;}</style></defs><title>pkWiki</title><path class="cls-1" d="M931.28-78.54a2.3,2.3,0,0,1-1.4-2.31c0-7.37.91-14.71,1-22.08V-103l-.38-.76a5.12,5.12,0,0,0-1.82-.37c-2.64-.06-3.2-3.3-1.69-4.64-.12-.13-.24-.26-.37-.38-.3-.31-.63-.61-1-.9q2.05-5.46,3.85-11a21.89,21.89,0,0,0-1.28-14.83,21.5,21.5,0,0,0,2.71-5.18c-.88-5.74-1.56-11.52-2.28-17.28a23.78,23.78,0,0,0-2.4-3.1c-3.72-4.05-8.84-5.23-14-5.81L879.06-171a14.42,14.42,0,0,0-6.1.92q-10.55-1.44-21.18-2.16c1.28-.25,2.56-.54,3.82-.87a3.54,3.54,0,0,0,.57-.22,43.44,43.44,0,0,0,4.56-.17c2.22.36,4.47.6,6.74.82a113,113,0,0,0,17,.26,3.46,3.46,0,0,0,.75-.12q13.74,1.59,27.52,2.63c4.59.34,4.45-6.6,0-7.08,1.21.13,0-1.92-.28-2.4a5.72,5.72,0,0,0-2.67-2.11,28.78,28.78,0,0,0-6.39-1.31q-7.4-1.2-14.84-1.93a219.59,219.59,0,0,0-30-.81,3.59,3.59,0,0,0-2.68,1.48,150.16,150.16,0,0,0-29.9-.8,3.81,3.81,0,0,0-2.76,1.56q-18.1-.9-36.24-1.16a3.85,3.85,0,0,0-1.16.14q-7.65-.28-15.32-.14-21.6-.47-43.21-1a3.53,3.53,0,0,0-3.16,1.49c-13.45-.65-200.88-1.31-214.32-2a3.36,3.36,0,0,0-3.21,1.73l-16.2-.73c-5.38-.24-11-1.13-16,1.32a3.58,3.58,0,0,0-.79.51c-.46-.05-.91-.07-1.36-.08l-1.59-.13a2.87,2.87,0,0,0-2.17.63,12.76,12.76,0,0,0-3.34,1.55,3.71,3.71,0,0,0-1.51,3.51c-.29.12-.59.25-.88.39a2,2,0,0,0-.59,3.24c-3.78-.29-7.55-.58-11.32-.83A2.59,2.59,0,0,1,449-172a28.45,28.45,0,0,1-3.09,1,11.8,11.8,0,0,0-2.88-7.25,47.44,47.44,0,0,0-10.07-9.11c-8.14-5.51-17.57-3.8-26.65-2.16a2.85,2.85,0,0,0-1.95,1.74c-.89.27-1.78.58-2.66.93a11.23,11.23,0,0,0-9.61,6c-.49.24-1,.48-1.49.74-1.7.87-.49,3.4,1.26,3l.56-.14a2.23,2.23,0,0,0,2.7.25c1.08-.6,2.17-1.15,3.28-1.67a3.62,3.62,0,0,0,2.61,1.16c4.77.1,9.95-.1,15.08.15a37.37,37.37,0,0,1,9.05,3.26,31,31,0,0,1,4.57,2.92l-1.06-.28c-3.91-1.13-7.72-2.58-11.6-3.73a80.25,80.25,0,0,0-15.22,2.91c-1.92-.58-3.84-1.2-5.74-1.85a18.94,18.94,0,0,0-2.26-.61l-.42.2a3.19,3.19,0,0,1-3.05-.44,55.42,55.42,0,0,0-6.78,4.28,50.38,50.38,0,0,0-14.26,15.62c0,.47-.07.93-.07,1.4q-.15,15.87-.22,31.73c4.33,5.5,4.84,13.92-.27,19,0,1.2.07,2.4.14,3.6a26.56,26.56,0,0,0,.64,4.65q-.19,3-.37,6c-.3,2.17-.53,4.36-.71,6.56a4.6,4.6,0,0,0-.6,2.31q0,7-.08,13.94v0c-.25,2.11-.48,4.21-.68,6.32A3.84,3.84,0,0,0,365.2-56q.39,8.1.79,16.2a248.47,248.47,0,0,0,1.52,31.32,5.88,5.88,0,0,0,.3,1.32c-.26,1.16-.53,2.31-.81,3.47A21.16,21.16,0,0,0,368.61,11c-.58,10-1.22,20-1.72,29.95-1.68,33.49-3.26,67.07-3,100.6.17,19,.51,37,1,56,.4,14.61,13.66,24.42,27.75,21.13,4.74-1.11,9.49-2.16,14.21-3.28a43.15,43.15,0,0,0,12.68.69c3.25,1.61,7,4.58,10.21,4.58a23.26,23.26,0,0,0,10.62-2.75c5.19.78,10.4,2.27,15.67,1.86,3.72-.3,7.37-.84,11-1.49a27.1,27.1,0,0,0,16.79,2.07c10.91,1,195.9.95,206.82.27,5.92-.36,11.82-1,17.7-1.73,3.41-.45,6.75-.85,10-1.48,17.57,2.13,35.13,3.65,53,3.17l.48,0a2.44,2.44,0,0,1,1.26-.43c11.14-.5,22.22.73,33.31,1.76a97,97,0,0,1,26.91,1.21,2.25,2.25,0,0,1,1.63,1.21l.56,0c3.63-1.28,7.24-3.7,11-4.56.6,0,1.2,0,1.81,0a25.59,25.59,0,0,0,4.93.22l.53.17c2.91,1,5.7,2.28,8.6,3.26,17.4-2,35-1.12,52.4-2.2a24.43,24.43,0,0,0,11.16-10.28,25.2,25.2,0,0,0-1.62-26.82c1-42.4.83-83.83,1.21-126.24.12-13.16.59-26.32,1-39.48a17.34,17.34,0,0,0-.83-5.68c.52-3.48,1-7,1.29-10.42.65-7.39,1.11-14.79,1.56-22.19.23-3.59-1.28-8-3.53-11.37q3.09-23.11,6.19-46.23C931.19-77.87,931.23-78.21,931.28-78.54ZM499.59-171.28l-16.16-1.12c-5.63-.39-11.26-.84-16.91-1.3a35.3,35.3,0,0,1,4.56-.67c.25,0,.51,0,.77,0a3.11,3.11,0,0,0,2.73,1.17,282.58,282.58,0,0,1,29-.13A32.78,32.78,0,0,0,499.59-171.28Zm190.33-4.53V-176l3.48.18C692.24-175.87,691.09-175.86,689.92-175.81ZM808-171.68q-10.08-.45-20.17-.68c-8.08-.17-16.22-.45-24.29-.14a60.2,60.2,0,0,0-11.78,1.56c-13.54-3-27.37-3.47-41.2-2.5-2.32-.49-4.64-1-7-1.35s-4.82-.72-7.1-.9l5,.26c3.85.32,7.73.52,11.6.67a3.62,3.62,0,0,0,2.64.88l46.46-1.56a4,4,0,0,0,2.7-1.05l.69,0a12.93,12.93,0,0,0,8.19,1.06,3.25,3.25,0,0,0,1.48-.68H778l.48,0a56.64,56.64,0,0,0,7.61,1.8c4.1.63,8.27,1.16,12.42,1.45s8,.44,12,.49A21.64,21.64,0,0,0,808-171.68ZM825-173a3.31,3.31,0,0,0,.52-.38c.46.13.91.26,1.37.37Z" transform="translate(-363.41 192.07)"/><path class="cls-2" d="M924,105.1c0-.22-.08-.44-.11-.66a5.25,5.25,0,0,0,2.46-5.73c-2.14-12.36-.64-24.61.56-37A318,318,0,0,0,928,23c-.68-25.84-2.18-51.7-3.83-77.5-.34-5.29,2.68-9.59,2.2-14.87,1.87-.35.32-2.79.36-5A38.88,38.88,0,0,0,924.34-88c-.28-1.33-.6-2.65-1-3.94-1.12-3.89-6.32-9.77-10.77-6.5a3.49,3.49,0,0,0-1,1.14h-.18c-.47-.31-1-.61-1.45-.9a3.66,3.66,0,0,0-4.52.75q-38.29-1-76.61-1.78c3.68-.16,7.35-.33,11-.54a3.43,3.43,0,0,0,2.85-1.62q14.14.23,28.29.33,17.92.14,35.85.11c4.31,0,9,.13,13-1.64,2.54,1.36,6.24-.35,5.28-4a.83.83,0,0,1,0-.15,10.11,10.11,0,0,0,1.67-9.78,4.64,4.64,0,0,0-3.45-3v-.06c.06-4.38.52-8.75.9-13.1q.62-7,1.24-14c.42-4.75,1-9.73.55-14.49a2.15,2.15,0,0,0-3.86-1.2c.64-1.36,2.07-4.38,2-4.29-2.36-3.24-8.82.7-12.66.17-5.17-.73-10.5-.61-15.71-.8l-8.47-.31c-2.58-1-5.67-1.12-8.39-1.46-3-.38-5.92-.65-8.89-.85-5.95-.4-11.92-.58-17.88-.81q-8.68-.33-17.35-1c-3-.22-5.89-.58-8.84-.89-2.31-.24-4.89-.9-6.88.49-3.44-1-5.46-.76-5.33-.6-4.47-.17-1.28,1.2-5.75,1-7.16-.26-16.56.57-23.72.5A3,3,0,0,0,781-173a517.65,517.65,0,0,1-61,2.46c-10.28-.19-194.49-.68-204.74-1.27l-1.37-.09a10.09,10.09,0,0,0-1.83-.76c5.13.06,184.24,0,189.38,0,6.18,0,12.44.14,18.61-.32a3,3,0,0,0,2.79-2.32c19-.38,38.1-.88,57.15-.5,21.73.44,43.39,2.05,65,3.83,6.18.51,12.36,1.17,18.55,1.56s12.35.22,18.54.41a1.23,1.23,0,0,0,1.22-.94c.87.1,1.74.19,2.61.25a3,3,0,0,0,3,2.29,55,55,0,0,0,6-.33,41.55,41.55,0,0,0,5.75.68,11.69,11.69,0,0,0,7.08-2.15l.18.24c1.72,2.27,5.82,1.81,5.77-1.56a9,9,0,0,0-3.7-7.39,6.06,6.06,0,0,0-5.71-4,3.14,3.14,0,0,0-2.1.92c-.65-.12-1.31-.22-2-.29l-2.94-.33a2.69,2.69,0,0,0-1.64-1.27,46.67,46.67,0,0,0-20.09-.85,2.28,2.28,0,0,0-1.88,1.36c-3.35-.45-6.69-1.08-10-1.78a1.73,1.73,0,0,0-2.08,1.37c-1.62-.53-3.24-1-4.88-1.46-2.08-.55-4.19-1-6.31-1.44a153.58,153.58,0,0,1-37.11-.15l-.78.15a2.75,2.75,0,0,0-2.2,1.76l-7.79-.84a2.24,2.24,0,0,0-2.16.94c-.57-.06-1.15-.13-1.73-.18-9.93-1-19.93-1.72-29.91-1.87a144.47,144.47,0,0,0-14.86.49c-4.42.39-9.2.62-13.29,2.46-17.7-1-209.21-2.7-227-1.89-.81,0-1.61.08-2.42.12-3-1.13-6.43-.91-9.58-.91-3.9,0-7.78.15-11.67.45-3.63.28-7.27.61-10.87,1.14-1.87.27-4.61.4-6.67,1.29a2.37,2.37,0,0,0-.83,0l-.29.08a14.36,14.36,0,0,0-7.11,2.71,2.59,2.59,0,0,0-.51,3.83c-.57.65-1.12,1.32-1.65,2a1.11,1.11,0,0,0,.49,1.76,2.88,2.88,0,0,0,.2,1.12l-.64.12a32,32,0,0,0-3.31.82,1.89,1.89,0,0,0-.92-.42,6.64,6.64,0,0,0-3.71.58,2.07,2.07,0,0,1-1.21,1.55c-.54.24-1.13.47-1.75.7a12.53,12.53,0,0,0-1.82,2.66c-.14-.64-.29-1.27-.45-1.9a38.77,38.77,0,0,1-3.89.94l-1.15.31a2.7,2.7,0,0,1-2,1.18.21.21,0,0,0,0,.06,1.9,1.9,0,0,0-1,1.73c.11,5,.32,10,.59,14.91q-.45-1.44-1-2.85c-2.32-5.7-5.06-12.61-10.25-16.39l3.42.25a9,9,0,0,1-3.58-3,11.7,11.7,0,0,0,6.47,3.14,2.64,2.64,0,0,0,4.39,1.3l.57-.6a3.61,3.61,0,0,0,2.54-3.56c1.74-3.3,2-7-1.38-10.06-4.21-3.83-10.09-6.53-15.4-8.42-10.88-3.87-24.88-3.83-34.18,3.88a2.46,2.46,0,0,0-.6,3.2,16.74,16.74,0,0,0-3,4.69c-1.06,2.5,1.59,4.78,3.79,2.93,2-1.67,4-3.33,6-4.93a1.75,1.75,0,0,0,.94.1c3.8-.69,7.26-1.83,11.2-1.65a30.14,30.14,0,0,1,9.14,1.93c-.14,1.52,1.88,2.79,3,1.47a1.71,1.71,0,0,1,.11-.14l.22.1a18,18,0,0,1-.25,2.17,2.34,2.34,0,0,0,.1,1.2,170.79,170.79,0,0,0-23.18-.07,10.78,10.78,0,0,0-3.78.34c-3.08.32-6.15.76-9.19,1.36-2.58,2.52-5.11,5.1-7.59,7.71.4-.16.81-.29,1.24-.42a31.27,31.27,0,0,0-7.49,6.61,17.32,17.32,0,0,0-1.38,2c-.81.88-1.62,1.75-2.42,2.63-.65,1.15-1.24,2.32-1.78,3.5a3,3,0,0,0,1.64.49l0,.44c-.27,1.31-.46,2.64-.61,4s-.26,2.63-.36,4a23.81,23.81,0,0,0-.47,8l-.15,3.57a3.66,3.66,0,0,0,.8,2.59v.35c3.14,7.47,5.34,16.59,1.3,23.63,0,.13,0,.26.05.38-.33,2-.82,4.06-1,6.13-.28,2.81-.26,5.64-.32,8.46-.11,5.36-.26,10.73-.32,16.09-.14,10.9-.12,21.8-.17,32.7-.1,21.63-.21,43.26-.18,64.89q0,32.7.18,65.4c.11,21.46.51,42.94.21,64.4-.22,16.56-3.65,35.15,1.36,51.35a2.11,2.11,0,0,0,0,2.8A16,16,0,0,0,371.8,211a41,41,0,0,0,3.15,6c2.43,3.83,7.52,2.31,8.85-.84l.4.05c6.21.68,12.54.64,18.77.87,13.19.49,26.39.66,39.58,1,26.45.63,226.89.88,253.34,1.28l80,1.23c26.06.4,52.14,1,78.2.19,14.58-.46,29.15-1.39,43.64-3.12,2.71-.33,5.47-.57,8.2-1a3.84,3.84,0,0,0,2.71,2.88,7.52,7.52,0,0,0,7.11-1.31,5.1,5.1,0,0,0,2.66.83c3,0,4.63-2.29,5-5a501.85,501.85,0,0,0,3.78-62.6q0-15.58-1.27-31.11C925.45,115.26,924.83,110.15,924,105.1ZM891-177.38l2.17.27c-1.49.06-3,.07-4.48,0C889.42-177.17,890.19-177.27,891-177.38Zm-28.64.75,3.18,1.09-3.21-.38A2.8,2.8,0,0,0,862.32-176.63Zm-384.42,2.9c-.75,0-1.49,0-2.24.07a1.1,1.1,0,0,0,0-.18Zm-23.12,14.38c.62-.36,1.25-.71,1.84-1.06a57.73,57.73,0,0,1,6.56-3.57c5.14-2.19,10.66-2.11,16.15-2.28s11.26-.52,16.9-.55c1.22,0,2.45,0,3.67,0,4.27.51,8.55,1.05,12.83,1.55,19.86,2.29,214,2.56,234,1.94q17.19-.54,34.31-2.24a4,4,0,0,0,1-.2c17.2,1.29,34.52,1.53,51.73,2.19l68.82,2.66c4,.16,10.14-.45,13.48,2.4,1.72,1.47,1.5,3.76,1.52,5.81a13.17,13.17,0,0,0,1.54,6.92q-.84,6.76-1.7,13.53c-.87,6.91-2.1,14.67-.92,21.81a12.06,12.06,0,0,1-3.66,1c-4.7.46-9.55.19-14.27.22q-15.06.09-30.13,0-30.14-.13-60.26-.81c-40-.92-253.84-2.85-293.77-4.75a207.23,207.23,0,0,0-31.61.86c-8.59.91-17.4,1.76-25.28-2.28-.24-1.73-.31-3.47-.38-5.21-.24-5.77-.19-11.56-.46-17.33a99.27,99.27,0,0,0-2.05-16.57q-.25-1.2-.42-2.4A11.13,11.13,0,0,1,454.78-159.35Zm-3.45,47.24c.15.67.32,1.34.53,2l-1.45.08A3,3,0,0,0,451.33-112.11ZM450-139.89c.12,2.44.17,4.88.21,7.32l-.11-.38c0-2.31-.06-4.63-.11-7Zm-4.06,29.6a2.93,2.93,0,0,0,.52.48c-.32,0-.64,0-.95.06Zm-3.3-19.06c0,1.28.05,2.55.13,3.8a24.51,24.51,0,0,1-1.3,8,7.69,7.69,0,0,1-2.25,3.52c-1.51,1.14-3.87,1.18-5.76,1.36A30.66,30.66,0,0,0,442.64-129.35Zm-13.2-52.88-.3.34-.64-.33c0-.15-.07-.31-.11-.46Zm-.52,7.47c.45.27.89.55,1.33.84a1.36,1.36,0,0,0-1.16,1.22c-.07-.17-.15-.34-.21-.52l-.7-.59C428.43-174.13,428.67-174.45,428.92-174.76Zm-50.48,25.9c.21-.36.42-.72.65-1.07a76,76,0,0,1,6.36-8.49,54.22,54.22,0,0,1,8.31-4.12,49.21,49.21,0,0,1,20.6-3.81c6.22.3,9.67,4.47,12.28,9.7,5,10.11,11.55,25.92,1.41,34.92-4.9,4.34-11.81,7.53-18,9.36a37,37,0,0,1-3.91.93,46.66,46.66,0,0,1-12.51-2.07,22.23,22.23,0,0,1-5.79-2.88c-3.54-3.51-5.94-8.21-7.93-12.7-.64-1.46-1.42-3.19-2.12-5A39.31,39.31,0,0,1,378.44-148.86ZM375-118.15c-.05-.86-.1-1.71-.14-2.57a30.82,30.82,0,0,0,6.35,8c.3.36.61.72.92,1.07l.51.52-.7,0c-1.3-.83-2.6-1-3.82-2.15l-.8-.77c0-.27-.05-.53-.08-.81A3.69,3.69,0,0,0,375-118.15Zm10.18,14.83,2,.08-5.42.4a4.37,4.37,0,0,0-2.54,1,1.44,1.44,0,0,0-1.63-.15l-.18.07a.77.77,0,0,0-.07-.16,2.07,2.07,0,0,0-1.06-.93l0-.84C379.21-103.2,382.63-103.44,385.22-103.32ZM916.51,100.36c0,1.92,0,3.85,0,5.75.09,5.09.27,10.18.48,15.27q.62,15.28.56,30.6-.09,17.36-1.38,34.66c-.08.29-.16.57-.25.85-.9,2.93-1.93,5.81-2.92,8.71s-2.11,6-3.26,9a23.08,23.08,0,0,1-2.27.61c-5.66,1.25-11.62,1.64-17.38,2.22-12.15,1.24-24.35,2-36.56,2.35-25,.8-50.07.26-75.1-.1-50.33-.72-274.64-1.44-325-2.16-14.24-.21-28.47-.19-42.71-.28-7,0-14.09.06-21.13.09-2.72,0-5.7.06-8.63-.17-6.58-14.54-3-32.31-2.62-47.7.59-21.22.05-42.5,0-63.73q-.27-64.37-1.1-128.73-.25-18.16-.5-36.34c-.09-5.88-.29-11.76-.47-17.64,0-.29,0-.57,0-.86a21.31,21.31,0,0,1,5.17-6q4.14-.8,8.29-1.5,4.36-.21,8.73-.48c.79,0,1.57.06,2.36.07,5.88.1,11.76.2,17.64.25,11.59.11,23.19-.1,34.78-.14,23.36-.09,220.7.1,244.06.58,46.79,1,93.57,2.61,140.35,4q30.89.9,61.78,1.71a4.38,4.38,0,0,0,1.81,1.13c4.07,1.4,8.62,2.51,12.38,4.79.19,2.1.36,4.21.49,6.31.38,6.32.48,12.66.65,19q.54,19.73,1.36,39.42c1,25.58,3.13,51.34.92,76.92C915.85,72.48,913.38,86.73,916.51,100.36Z" transform="translate(-363.41 192.07)"/><path class="cls-3" d="M435.91-160.06a3,3,0,0,0-2.86-.94,31.24,31.24,0,0,0-8.32-7.7c-6.86-4.34-15.49-4.94-23.39-4.3-7.63.62-14.77,2.71-20.56,7.9l-.13.15a25.37,25.37,0,0,0-7.43,13.86c-1.77,8.61-2.58,17.92,1.2,26.08a46.75,46.75,0,0,0,7.12,10.45c.93,1.1,1.9,2.16,2.92,3.16a4.31,4.31,0,0,0,2.59,2.33l.22.08a19.75,19.75,0,0,0,4.09,2.37c7.13,3,16.22,2.15,23.66.63a41.41,41.41,0,0,0,6.63-1.94,3.85,3.85,0,0,0,1.38-.2,22,22,0,0,0,4.16-1.89,33.06,33.06,0,0,0,13.42-13.15,3,3,0,0,0,2-2.26,27.13,27.13,0,0,0,.74-4.52A32.93,32.93,0,0,0,435.91-160.06Zm-7.52,32.38c-2.25,4.73-6.91,7.37-11.85,8.54a53,53,0,0,1-16.43,1.07,12.31,12.31,0,0,1-7.75-3.1,13.4,13.4,0,0,1-6.49-6.64,22.48,22.48,0,0,1-3.86-7.26,19.36,19.36,0,0,1,2.81-17.33c4.09-5.64,10.09-7.62,16.82-7.78s12.94.68,18.23,4.05l.06.06c4.94,1.57,7.79,6.38,9.09,11.53C430.38-139.14,430.84-132.84,428.39-127.68Z" transform="translate(-363.41 192.07)"/><path class="cls-4" d="M931-103.41c0-12.77-.07-25.55-.25-38.33-1-6.42-1.69-12.87-2.52-19.3a41.39,41.39,0,0,0-1.73-4.32,2.2,2.2,0,0,1-.84-1.82l-.11-.23q-1.64-2.11-3.37-4.14a27.79,27.79,0,0,1-3-2.87,30.77,30.77,0,0,1-2.36-3.12l-2-2.22,0,0a35.19,35.19,0,0,1-5.45-4.88c-1.38-.37-2.77-.71-4.13-1.13-15-.77-29.95-1.56-44.93-1.71-9.53-.09-19-.56-28.48.12s-19.09,0-28.68-.41c-38.8-1.81-251.66-1.15-290.5-.08-13.63.38-27.38.68-41.05,1.64a.19.19,0,0,0,0-.07c-2.6.42-5.27.58-7.93.84l-.68.08a27.45,27.45,0,0,0-4.55,2.24c-2.33,1.48-4.66,5.81-7.87,5.07-1.41-.32-2.4-1.57-3.3-2.6a34.18,34.18,0,0,0-5.34-5.07c-.64-.46-1.29-.91-1.95-1.34-.77-.21-1.53-.5-2.17-.73-2.18-.79-4.29-1.73-6.43-2.6a26,26,0,0,0-7.09-1.64c-3.26,0-6.51,0-9.78.06H414a33.87,33.87,0,0,0-15.44,3.65c-3.12.62-6,3.27-8.41,5.2a65,65,0,0,0-8.28,7.89,62,62,0,0,0-5.81,7.6c-1.27,1.18-2.6,2.51-2.55,4.21a.76.76,0,0,0,.06.27c-.1.24-.21.47-.32.7a37.91,37.91,0,0,0-2,4.12,46.32,46.32,0,0,0-4.61,12.41c-.08,1.48-.22,3-.38,4.44.13,2,.22,4.11.29,6.17.28,1.13.56,2.25.83,3.38,1.5,6.18,3.57,13,2.63,19.35-.55,3.71-2.08,7.14-3.45,10.62A5,5,0,0,0,365-98.15a3.81,3.81,0,0,0,.15.65c-.4,1.92-.79,3.84-1.14,5.77a97.8,97.8,0,0,0-.08,9.84,134,134,0,0,1-.21,14.17,3,3,0,0,0,.44.51c-.2,15.9-.34,31.91-.45,48.27q-.56,80,0,160c.15,22.07.37,40.48.66,62.55a105.77,105.77,0,0,0,3,10.27,25.35,25.35,0,0,0,2.26,3.27,35.78,35.78,0,0,0,12.1,4.21c3.26.62,7,.42,10.68.55a1.33,1.33,0,0,0,.19-.14c15.74-.31,31.47,1.28,47.21.89,25-.64,50.11-.23,75.17-.67,49.93-.87,262.39,1.61,312.31,3,13.81.38,27.62-2.25,41.43-1.66,6.9.29,13.8-1.47,20.7-1.12,6.44.34,13,1,19.4.76,1,.14,2.08.24,3.15.29a22.52,22.52,0,0,0,7.41-.61,30.5,30.5,0,0,0,8.86-11.9c1.13-4.35,1.4-9,2-13.49.15-45.07.29-87,.44-132.1Q931-13.8,931-92.65c-.84-3.71-1.18-7.16,0-10.76ZM468.41-182.77a67,67,0,0,1,10.6,0,2.53,2.53,0,0,1,.8-.14c3.2,0,6.39.16,9.58.24,5.53-.28,11.05-.55,16.58-.74,19.52-.66,213-.47,232.55-1,19.33-.47,38.73-.13,58,.8,9.42.46,18.88.66,28.32.2s18.81-.58,28.27-.65c17.71-.13,35.49,1,53.21,1.93a8.07,8.07,0,0,0,1.56,1.28,15.88,15.88,0,0,0,3.19,1.85c.55.77,1.1,1.55,1.63,2.33s1.06,1.69,1.65,2.49a3.47,3.47,0,0,1-2.19,2.81,10.31,10.31,0,0,1-1.42.21,2.31,2.31,0,0,0-.47.08c-45.52-2.76-91.09-4.6-136.67-5.78-49-1.26-261.53,1.13-309.65,1.16l-.75.21a1.94,1.94,0,0,0-.06-.4,7.41,7.41,0,0,1-.18-1.1C464.72-178.82,467-180.63,468.41-182.77Zm-78.19,5.24a33.91,33.91,0,0,0,4.15-5.3,15.5,15.5,0,0,1,7.1-3.74,3.23,3.23,0,0,1,.86-.06,25.68,25.68,0,0,1,8.73-2.89,32.59,32.59,0,0,1,10.14.26h0a26,26,0,0,1,18.7,9,12.89,12.89,0,0,1,3.54,4.86q-1.23,3-2.51,5.94a6.4,6.4,0,0,1-2.42,3.21c-.2-.23-.39-.46-.56-.69-1.25-1.68-2.39-3.44-3.71-5.07-3.1-3.86-7.27-5.78-11.9-7.24-6.29-2-14.44-3.55-20.74-.9a21.9,21.9,0,0,0-4.11.62,19,19,0,0,0-4.52,1.59c-.61.08-1.24.21-1.85.33-.31.06-.62.1-.93.18A.49.49,0,0,0,390.22-177.53Zm-6.53,11.74c12.76-9.38,32.31-8.78,44.42.34a39,39,0,0,1,13.94,21.55,18,18,0,0,0,.35,6.22,3.09,3.09,0,0,0,.31.66c-.15,1.45-.33,2.9-.5,4.34a58.23,58.23,0,0,1-1.37,7.64c-.06.14-.11.29-.18.43a2.71,2.71,0,0,0-1.28,2.3c0,.09,0,.18,0,.27-4.7,8.14-12.29,12.68-20.81,14.7a57.14,57.14,0,0,1-10.09.81c-3.1-.16-5.77.42-8.46.2l-.05-.06c-1.41-1.52-3.85-2-6.26-2.06-6.53-3.21-12.24-7.56-16.25-13.51C369-134.52,370.64-156.19,383.69-165.79ZM924-24.36q-.35,79.82-.52,159.61c-.08,24.18-.16,45.24-.24,69.42a58.85,58.85,0,0,1-1.45,7.41c-.85,1.19-1.9,2.12-2.68,3.23a7.55,7.55,0,0,1-1.85.87c-2.41.69-5.32.32-7.81.46-1.1.07-2.2.17-3.3.28-4.18-.49-8.39-.66-12.59-.91q-9.59-.54-19.16-1c-12.42-.6-24.85,4.14-37.28,3.77q-37.54-1.11-75.13-1.16c-49.94-.13-262.42-2.88-312.34-1.26-19.48.63-39-.88-58.43,0-2.61-1.21-6.84-.73-9.1-.76-1.79,0-3.69-.52-5.51-.7a9.57,9.57,0,0,1-2.59-1.53c-2.85-2.46-3.59-6.69-4.71-10.26-.48-45.36-.8-87.08-.81-132.45,0-48.13.26-93.73.75-141.36,1-4,.45-8.46.15-12.41,0-.1,0-.2,0-.3l0-2.75v-.56a5.64,5.64,0,0,0,.73-1.32,22.74,22.74,0,0,1,1.16-10.25c.18-.17.38-.34.59-.51a17,17,0,0,1,4.43-2.64l.1,0h2c3.17,0,6.38-.27,9.55-.5a3.13,3.13,0,0,0,1.27-.37h.06c2.45.13,5.76,1,8.37.46a22.24,22.24,0,0,0,2.94.34c6.56.22,12.95-1.73,19.52-1.37a2.66,2.66,0,0,1,1,.23c2.55-.46,5.11-.85,7.68-1.19,4.42-.57,8.88-.94,13.34-1.09,1.53.33,3.11.53,4.51.81q5.63,1.13,11.28,2c5.82.85,12.82,2.24,18.87,1.19,20,.38,214,1,233.92,1.43,56.93,1.38,102.38-.29,159.31,1l44.37,1a6.63,6.63,0,0,1,5.06.11l1.05,0a4.25,4.25,0,0,0,.22.85c2.35,2.15,3.25,6.41,3.18,10.65a3.07,3.07,0,0,0,.31.17C924.07-65.28,924.08-44.81,924-24.36Zm.32-82.46a13.77,13.77,0,0,1-2.78,3.12c-13.71-.43-27.42-.72-41.14-1.08Q837.7-105.9,795-106.92c-53.69-1.31-271.14-.32-323.72-.65-4.2-.6-8.51-.78-12.64-1.17l-5-.44a6.8,6.8,0,0,1-2-1c-1.6-2.18-2-5.14-2.23-7.93-.34-4-.5-8-.67-12v-.18a36.54,36.54,0,0,0,.55-8.49c.1-1.74.21-3.48.32-5.22.27-4.63.55-9.25.8-13.88a33.23,33.23,0,0,1,1.1-6.65c.2-.28.4-.56.62-.84a3.76,3.76,0,0,0,1.23-1.14c.16-.23.31-.47.46-.7l.1-.09a11,11,0,0,1,4.75-2.47c1.53-.36,2.63-.36,3.65-1.34,20.88.07,215.75.09,236.62.32,51.21.55,90.95-1.56,142.12.44q38.32,1.51,76.6,3.85c2,1.35,4.17,2.51,5.45,4.56.08.13.16.27.23.41.14.56.26,1.13.37,1.71a2,2,0,0,0,.4.87,11.73,11.73,0,0,0,1.09,4.17C924.74-138.79,924.47-122.81,924.31-106.82Z" transform="translate(-363.41 192.07)"/><path class="cls-5" d="M648.35-154.49a64.32,64.32,0,0,0-13.68,27.88c-2.88-8-3.75-16.68-4.28-25.09a1.8,1.8,0,0,0-3-1.26A56.6,56.6,0,0,0,613-128.53c-3.39-8.05-6.44-16.23-10-24.2-.54-1.21-2.32-.32-2.05.86,2.38,10.54,6.57,20.72,10.72,30.66.69,1.67,3.61,2.29,4,0a58.39,58.39,0,0,1,11.62-26.19c1,9.62,2.16,19.14,6.58,28,.9,1.78,3.17.67,3.37-.92a66.62,66.62,0,0,1,13.32-31.94C651.71-153.84,649.64-156,648.35-154.49Z" transform="translate(-363.41 192.07)"/><path class="cls-5" d="M662.07-133.06a78.13,78.13,0,0,0-1.41-11.72c-.35-1.58-2.68-1.16-2.74.37-.14,3.78,0,7.57-.13,11.35,0,1.82-.11,3.63-.22,5.44s-.52,3.72.19,5.5c.61,1.51,2.89,2.23,3.79.49C663.2-124.8,662.28-129.58,662.07-133.06Z" transform="translate(-363.41 192.07)"/><path class="cls-5" d="M660-153.79a2,2,0,0,0-2.11.11l-.3.16a1.66,1.66,0,0,0,0,2.83l.31.17a2,2,0,0,0,1.87.2,2,2,0,0,0,1.2-1.78A2.06,2.06,0,0,0,660-153.79Z" transform="translate(-363.41 192.07)"/><path class="cls-5" d="M699.83-149.19c-3.9,0-8,3.28-11,5.56a63.7,63.7,0,0,0-6,5.24,1.71,1.71,0,0,0-.56.37c0-.48,0-1,0-1.44,0-2.71,0-5.42-.12-8.14-.07-2.39.33-5.25-1-7.33a1.44,1.44,0,0,0-2.45,0c-1.22,2-.86,4.55-.94,6.82-.1,2.89-.24,5.77-.33,8.65-.19,5.6-.49,11.19-.87,16.78-.23,3.37,5.13,3.4,5.28,0s.24-6.54.32-9.81l1.45-1.19c1.43,2.21,2.87,4.42,4.35,6.59,1.6,2.37,3.15,6.12,6,7a1.68,1.68,0,0,0,2.1-1.61c.05-3-3.17-5.68-4.89-7.89s-3.3-4.13-5-6.17q2.81-2.18,5.72-4.22c2.94-2.06,7.12-4,9-7.08A1.42,1.42,0,0,0,699.83-149.19Z" transform="translate(-363.41 192.07)"/><path class="cls-5" d="M714.62-126.32c0-2.18-.1-4.37-.16-6.55-.13-4.55-.19-9.09-.47-13.63a1.62,1.62,0,0,0-3.23,0c-.28,4.54-.34,9.08-.47,13.63-.06,2.18-.13,4.37-.16,6.55s-.26,4,.62,6a1.89,1.89,0,0,0,3.25,0C714.88-122.28,714.65-124.19,714.62-126.32Z" transform="translate(-363.41 192.07)"/><path class="cls-5" d="M713.24-154.28a1.57,1.57,0,0,0-.07-1.89,1.73,1.73,0,0,0-1.26-.81h-.48a1.75,1.75,0,0,0-1.25.8,1.57,1.57,0,0,0-.07,1.9l.11.16h0l.1.15a1.59,1.59,0,0,0,2.7,0l.11-.15h0Z" transform="translate(-363.41 192.07)"/><path class="cls-6" d="M647-148.74c-2.25,3.09-3.84,6.67-5.74,10-.54,1.27-1,2.54-1.47,3.69-1.94,4.74-4.1,9.86-5.23,14.93a54.45,54.45,0,0,1-4.06-10.15c-1.45-3.14-1.57-6.58-2.15-10.08-.3-1.85-.69-3.73-.81-5.6a3.35,3.35,0,0,0-.2-.37.68.68,0,0,0-.59-.34c0-.12,0-.24.07-.36a.69.69,0,0,0,0-.25l-.47.27a34.35,34.35,0,0,0-3.14,3c-.41.78-.78,1.57-1.18,2.32-1.12,2.17-2.13,4.35-3,6.61-1,2.44-1.93,4.89-2.76,7.38a24.7,24.7,0,0,0-1.57,6h-.08l-.33.14a6,6,0,0,0-1-1l-.38-.26a1.59,1.59,0,0,0,0-.69,44.59,44.59,0,0,0-2.79-7.3l-2.77-6.81c-1.89-4.67-4-9.2-5.36-14.07a1,1,0,0,0-.4-.58,3.59,3.59,0,0,0-.21.38,8.11,8.11,0,0,0-.55,3.27,13.42,13.42,0,0,0,.26,2.35,103.09,103.09,0,0,0,3.41,9.94c1,2.42,1.93,4.85,2.89,7.28a48.81,48.81,0,0,0,2.58,6.22.81.81,0,0,0,.22.56c.34.35.64.73,1,1.1a1.19,1.19,0,0,0-.11.26c1.44,1,3.13,1.74,4.17,1.35a3.79,3.79,0,0,0,1.67-1.47l0-.12a33.92,33.92,0,0,0,2.4-5.77c.83-2.14,1.65-4.29,2.5-6.43s1.72-4.24,2.54-6.39c.5-1.33,1.15-2.68,1.69-4.06a37.71,37.71,0,0,0,1.67,13.26c.84,2.5,1.84,5,2.8,7.42.72,1.86,1.43,3.9,3,5.21a.61.61,0,0,0,.91-.08,1,1,0,0,0,1.75.23,53.63,53.63,0,0,0,4.25-9.1,42.68,42.68,0,0,1,1.35-4.43c1.4-5.53,3.18-10.9,6.38-15.65.33-.54.69-1.06,1.07-1.57.3-.7.59-1.41.88-2.11C648.91-150,647.91-149.39,647-148.74Z" transform="translate(-363.41 192.07)"/><path class="cls-6" d="M658.7-123.78a4,4,0,0,1-.59-3.34c-.27-.51-.51-1-.73-1.55a1,1,0,0,0-.56.43c0,1.52.12,3,.1,4.52.49,2.09,1.62,3.77,3.92,3.9a2.23,2.23,0,0,0,1.78-2.16,1.41,1.41,0,0,0-.35-.91A2.6,2.6,0,0,1,658.7-123.78Z" transform="translate(-363.41 192.07)"/><path class="cls-6" d="M656.37-151.2c-.26,1.49,2.31,2.13,3.42,1.95a2.64,2.64,0,0,0,1.84-1.81,1.76,1.76,0,0,0-1.89-.72,4.69,4.69,0,0,1-2.39-.14.8.8,0,0,0-.94.31C656.4-151.48,656.39-151.34,656.37-151.2Z" transform="translate(-363.41 192.07)"/><path class="cls-6" d="M680-122c-2.27-1.33-1.55-4.47-1.68-6.66s-.31-4.43-.47-6.65a.58.58,0,0,0-.55-.5c-.29,3.2-.25,6.44-.47,9.65-.13,1.93-.81,4.57.17,6.35a2.67,2.67,0,0,0,2.69.18A1.31,1.31,0,0,0,680-122Z" transform="translate(-363.41 192.07)"/><path class="cls-6" d="M700-148.9l-.1-.06c-2.29,2.59-4.34,5.42-7,7.62-2.19,1.8-5.45,2.88-6.33,5.72a.87.87,0,0,0,1.24.08c2.06-1.7,4.15-3.38,6.34-4.86,2-1.36,4.29-2.39,6-4.3a1,1,0,0,0,0-1.11,2.69,2.69,0,0,0,.37-.3c.59-.63,1.18-1.73.47-2.54A.94.94,0,0,0,700-148.9Z" transform="translate(-363.41 192.07)"/><path class="cls-6" d="M693.63-121.76l-.59-.18-.74-.21a55.89,55.89,0,0,0-3.75-5.61,60.74,60.74,0,0,0-4.1-5.72.85.85,0,0,0-1-.21c.64,1.79,1.07,3.63,1.8,5.4a23.53,23.53,0,0,0,4.07,6c1.26,1.48,3.37,3.42,5.17,3.35l.16-.08a1.3,1.3,0,0,0,.59-.84,1.24,1.24,0,0,0,.34-1.47A4.45,4.45,0,0,1,693.63-121.76Z" transform="translate(-363.41 192.07)"/><path class="cls-6" d="M712.47-122.1c-1.18.12-.9-3.86-1-4.65a18.58,18.58,0,0,0-.78-4.32.37.37,0,0,0-.72.1,35.32,35.32,0,0,1-.16,5.14c-.1.63-.28,1.28-.42,1.94.26,1.32.51,2.63.84,3.93a2.73,2.73,0,0,0,2.59.56C714.29-119.79,714.06-122.26,712.47-122.1Z" transform="translate(-363.41 192.07)"/><path class="cls-6" d="M709.62-154.76a3.61,3.61,0,0,0,.33,1.54c.79,1.49,2.72.52,4.15-.47a1.47,1.47,0,0,0-1.09-1.19,5.3,5.3,0,0,0-3.08-.06A1.33,1.33,0,0,0,709.62-154.76Z" transform="translate(-363.41 192.07)"/></svg>