<svg id="Слой_1" data-name="Слой 1" xmlns="http://www.w3.org/2000/svg" viewBox="0 0 317.57 447.75"><defs><style>.cls-1{fill:#757576;}.cls-2{fill:#9b9b9a;}.cls-3{fill:#8c8c8c;}.cls-4{fill:#646463;}.cls-5{fill:#545454;}.cls-6{fill:#444;}.cls-7{fill:#a7a7a6;opacity:0.68;}</style></defs><title>androidWiki</title><path class="cls-1" d="M259.22,200.6a2.31,2.31,0,0,1-1.4-2.31c0-7.37.91-14.71,1-22.08a.41.41,0,0,1,0-.11l-.39-.76a5.08,5.08,0,0,0-1.82-.37c-2.63-.06-3.2-3.3-1.69-4.64l-.36-.38c-.31-.31-.64-.61-1-.9q2.07-5.46,3.85-11a21.83,21.83,0,0,0-1.28-14.83,21.5,21.5,0,0,0,2.71-5.18c-.88-5.75-1.56-11.52-2.28-17.29a24.47,24.47,0,0,0-2.4-3.1c-3.72-4-8.84-5.22-14-5.8L207,108.12a14.58,14.58,0,0,0-6.1.91q-10.53-1.44-21.18-2.15c1.29-.25,2.56-.54,3.82-.88a3.51,3.51,0,0,0,.57-.21,40.71,40.71,0,0,0,4.56-.18c2.22.37,4.47.61,6.75.83a113,113,0,0,0,17,.26,3.67,3.67,0,0,0,.75-.12q13.73,1.59,27.51,2.63c4.6.34,4.45-6.6,0-7.09,1.21.14,0-1.92-.28-2.39a5.66,5.66,0,0,0-2.67-2.11,28.23,28.23,0,0,0-6.39-1.31c-4.92-.8-9.88-1.45-14.84-1.93a221.06,221.06,0,0,0-30-.82,3.66,3.66,0,0,0-2.69,1.49,150.12,150.12,0,0,0-29.9-.8,3.78,3.78,0,0,0-2.76,1.56q-18.1-.9-36.24-1.16a3.78,3.78,0,0,0-1.15.14c-5.11-.19-10.22-.25-15.33-.15-14.4-.3,35.39-.9,21-1.3a3.52,3.52,0,0,0-3.16,1.49c-13.45-.66-14.31.69-27.76,0a3.4,3.4,0,0,0-3.21,1.74l-16.19-.73c-5.38-.24-11-1.14-16,1.32a3.76,3.76,0,0,0-.78.51c-.46,0-.92-.07-1.37-.08l-1.59-.13a2.79,2.79,0,0,0-2.16.63,12.82,12.82,0,0,0-3.35,1.55,3.72,3.72,0,0,0-1.5,3.5l-.89.4a2.06,2.06,0,0,0-.59,3.24q-5.66-.45-11.32-.83a2.58,2.58,0,0,1-1.78,2.84,27.92,27.92,0,0,1-3.1,1,11.85,11.85,0,0,0-2.87-7.25,46.73,46.73,0,0,0-10.08-9.11C3.5,88-5.94,89.66-15,91.3A2.83,2.83,0,0,0-17,93c-.89.27-1.78.58-2.66.93a11.23,11.23,0,0,0-9.61,6l-1.49.73c-1.7.87-.49,3.41,1.26,3l.56-.14a2.23,2.23,0,0,0,2.7.25c1.07-.6,2.17-1.15,3.28-1.67a3.6,3.6,0,0,0,2.61,1.16c4.77.1,10-.1,15.08.14a37.4,37.4,0,0,1,9.05,3.27,32.07,32.07,0,0,1,4.57,2.92c-.36-.09-.71-.18-1.06-.29-3.92-1.12-7.72-2.57-11.6-3.72a79.72,79.72,0,0,0-15.23,2.91c-1.92-.59-3.83-1.2-5.73-1.85a17.65,17.65,0,0,0-2.26-.61l-.43.2a3.23,3.23,0,0,1-3-.44,54.86,54.86,0,0,0-6.77,4.28A50.42,50.42,0,0,0-52,125.73c0,.46-.06.93-.07,1.4q-.14,15.87-.22,31.73c4.34,5.49,4.85,13.92-.26,18.95,0,1.2.07,2.4.13,3.6a28.6,28.6,0,0,0,.64,4.65l-.36,6c-.3,2.17-.53,4.36-.72,6.55a4.77,4.77,0,0,0-.59,2.32q0,7-.08,13.94v0c-.25,2.1-.49,4.21-.68,6.32a3.83,3.83,0,0,0-1.87,3.63q.39,8.1.79,16.2a248.47,248.47,0,0,0,1.52,31.32,5.85,5.85,0,0,0,.3,1.33c-.27,1.16-.53,2.31-.81,3.47a21.11,21.11,0,0,0,1.61,14.67c-.58,10-1.22,20-1.72,29.95-1.68,33.49-3.9,99.53-3.6,133.06.16,19,.51,37,1,56,.39,14.62,13.65,24.43,27.74,21.14,4.74-1.11,9.49-2.17,14.22-3.28a43.15,43.15,0,0,0,12.68.68C.91,531,4.69,534,7.87,534a23.42,23.42,0,0,0,10.62-2.75c5.18.78,10.39,2.27,15.66,1.85a108.71,108.71,0,0,0,11-1.49A26.71,26.71,0,0,0,57,534.18a27.08,27.08,0,0,0,4.91-.5c10.9,1,9.33-1.06,20.25-1.73,5.92-.36,11.82-1,17.7-1.73,3.41-.45,6.75-.85,10-1.48,17.57,2.12-29,3.93-11.22,3.45l.47,0a2.44,2.44,0,0,1,1.26-.43c11.15-.5,22.22.73,33.31,1.76,9-.68,18.08-.61,26.91,1.21a2.21,2.21,0,0,1,1.63,1.21l.57,0c3.63-1.28,7.23-3.7,11-4.56.61,0,1.21,0,1.81,0a25.59,25.59,0,0,0,4.93.22l.53.17c2.91,1,5.7,2.28,8.6,3.26,17.4-2,35-1.12,52.41-2.2a24.45,24.45,0,0,0,11.15-10.28,25.2,25.2,0,0,0-1.62-26.82c1-42.4,1.46-116.29,1.85-158.7.12-13.16.58-26.32.94-39.48a17.17,17.17,0,0,0-.83-5.69c.52-3.47,1-6.95,1.29-10.42.66-7.38,1.11-14.79,1.57-22.19.22-3.58-1.28-8-3.54-11.36q3.11-23.12,6.19-46.23C259.13,201.26,259.17,200.93,259.22,200.6Zm-180.92-91-16.16-1.11c-5.63-.39-11.27-.85-16.91-1.3a35.05,35.05,0,0,1,4.56-.67c.25,0,.5,0,.76,0a3.13,3.13,0,0,0,2.74,1.17,279.58,279.58,0,0,1,28.95-.13A34.08,34.08,0,0,0,78.3,109.57Zm3.75-6.52a1.48,1.48,0,0,0,0-.21l3.47.17C84.38,103,83.22,103,82.05,103.05ZM136,107.46q-10.08-.45-20.17-.68c-8.08-.17-16.22-.46-24.29-.14-3.93.15,56.27.33,52.42,1.27-13.54-3-27.37-3.46-41.2-2.5-2.32-.49-4.65-1-7-1.34-2.49-.41-4.82-.72-7.1-.9l5,.26c3.86.32,7.73.52,11.6.67a3.66,3.66,0,0,0,2.65.88L90.14,103.7a4.05,4.05,0,0,0,2.7-1l.69,0a13,13,0,0,0,8.2,1.06,3.35,3.35,0,0,0,1.48-.68h3.25a55.17,55.17,0,0,0,7.61,1.81c4.11.63,8.27,1.16,12.42,1.45s8,.44,12,.49A21.31,21.31,0,0,0,136,107.46Zm17-1.34a3.85,3.85,0,0,0,.52-.38l1.36.37Z" transform="translate(58.35 -88.79)"/><path class="cls-2" d="M222.4,174c-.68.1-1.35.18-2,.25-.85.09-1.7.16-2.54.21a24.73,24.73,0,0,1-3.05,1.13,2.33,2.33,0,0,1-2.78-1c-3.29-.08-6.57-.36-9.81-.7-6-.65-12.13-1.47-18.15-2.67-11.47.3-23,.62-34.44.61a86.14,86.14,0,0,1,9,3.82c14.89.68,29.78,1.11,44.69,1,6.16,0,12.32-.15,18.47-.37l.69,0A2.56,2.56,0,0,1,222.4,174Z" transform="translate(58.35 -88.79)"/><path class="cls-2" d="M198,111.34l-1.28,2c-.15.24.23.45.38.22l1.36-2C198.66,111.32,198.18,111,198,111.34Z" transform="translate(58.35 -88.79)"/><path class="cls-3" d="M251.32,416.7c0-.22-.08-.44-.11-.66a5.23,5.23,0,0,0,2.46-5.73c-2.13-12.36,0-57.07,1.19-69.45a314,314,0,0,0,1.07-38.68c-.68-25.84-2.18-51.7-3.83-77.5-.34-5.29,2.68-9.59,2.21-14.88,1.87-.34.32-2.78.35-5a38.65,38.65,0,0,0-2.37-13.68c-.29-1.33-.61-2.65-1-3.94-1.11-3.89-6.32-9.78-10.77-6.5a3.51,3.51,0,0,0-1,1.14h-.17c-.48-.31-1-.61-1.46-.9a3.65,3.65,0,0,0-4.51.75q-38.31-1-76.61-1.78,5.5-.24,11-.54a3.43,3.43,0,0,0,2.85-1.62q14.15.21,28.3.33,17.92.13,35.85.11c4.3,0,9,.13,13-1.64,2.53,1.36,6.23-.35,5.27-4,0,0,0-.1,0-.15a10.11,10.11,0,0,0,1.68-9.78,4.66,4.66,0,0,0-3.45-3v-.07c.05-4.37.51-8.74.9-13.1l1.23-14c.42-4.76,1-9.73.56-14.5a2.15,2.15,0,0,0-3.87-1.2c.64-1.35,2.07-4.38,2-4.29-2.36-3.23-8.82.71-12.65.17-5.17-.72-10.51-.6-15.72-.79l-8.47-.31c-2.57-1-5.66-1.12-8.38-1.46-3-.38-5.92-.65-8.9-.85-6-.4-11.91-.59-17.88-.81q-8.69-.33-17.34-1c-3-.21-5.9-.57-8.85-.88-2.31-.24-4.89-.9-6.88.49-3.44-1-5.46-.76-5.33-.6-4.47-.17-1.28,1.19-5.75,1-7.16-.26-16.56.57-23.71.49a3,3,0,0,0-3.27-1.81c-20.27,2,23.55,2.57,3.18,2.18-10.27-.19-7.91,1.32-18.17.73L92.63,109a9.43,9.43,0,0,0-1.83-.76c5.13.06-2.33-2,2.8-2,6.19,0,12.45.15,18.62-.31a3,3,0,0,0,2.79-2.32c19-.39-26.1-.6-7.05-.22,21.73.44,43.39,2,65,3.83,6.18.51,12.36,1.17,18.55,1.56s12.36.21,18.54.41a1.24,1.24,0,0,0,1.22-.94c.87.1,1.74.18,2.61.25a3,3,0,0,0,3,2.29,54.83,54.83,0,0,0,6-.33,43.11,43.11,0,0,0,5.75.67,11.57,11.57,0,0,0,7.08-2.14l.18.24c1.73,2.26,5.82,1.81,5.77-1.56a9,9,0,0,0-3.7-7.39,6,6,0,0,0-5.71-4,3.13,3.13,0,0,0-2.09.92c-.66-.12-1.32-.22-2-.29l-2.94-.34a2.65,2.65,0,0,0-1.64-1.26,46.36,46.36,0,0,0-20.09-.85,2.28,2.28,0,0,0-1.87,1.36c-3.35-.45-6.7-1.08-10-1.79a1.75,1.75,0,0,0-2.08,1.38c-1.61-.53-3.24-1-4.88-1.46-2.08-.55-4.19-1-6.31-1.44a154.09,154.09,0,0,1-37.11-.15l-.78.14a2.79,2.79,0,0,0-2.2,1.77l-7.79-.84a2.2,2.2,0,0,0-2.15.94l-1.73-.18c-9.94-1-12.25-.47-22.23-.62-5-.08,46.59-1.47,41.65-1-4.43.39-9.21.62-13.3,2.45-17.7-1-22.64-.69-40.4.11L90,95.19c-3-1.13-6.44-.91-9.59-.91-3.9,0-7.78.14-11.67.45-3.62.28-7.26.6-10.86,1.13-1.87.28-4.62.41-6.67,1.3a2,2,0,0,0-.83,0l-.29.08A14.43,14.43,0,0,0,42.93,100a2.61,2.61,0,0,0-.51,3.83c-.56.65-1.11,1.31-1.64,2a1.1,1.1,0,0,0,.49,1.75,2.82,2.82,0,0,0,.2,1.12l-.64.13a29.61,29.61,0,0,0-3.31.82,1.8,1.8,0,0,0-.92-.42,6.62,6.62,0,0,0-3.71.58,2.11,2.11,0,0,1-1.21,1.55c-.55.23-1.14.47-1.75.69a12.66,12.66,0,0,0-1.82,2.66c-.14-.63-.29-1.27-.46-1.9a35.65,35.65,0,0,1-3.89,1l-1.14.31a2.66,2.66,0,0,1-2.05,1.17l0,.07a1.9,1.9,0,0,0-1,1.73c.11,5,.32,10,.59,14.91-.31-1-.65-1.92-1-2.85-2.31-5.7-5.06-12.61-10.24-16.39l3.42.25a9,9,0,0,1-3.58-3,11.67,11.67,0,0,0,6.47,3.14,2.62,2.62,0,0,0,4.38,1.29,8.08,8.08,0,0,0,.57-.6,3.6,3.6,0,0,0,2.55-3.55c1.74-3.31,2-7-1.38-10.06C17.15,96.33,11.27,93.63,6,91.74c-10.89-3.88-24.88-3.83-34.19,3.88a2.46,2.46,0,0,0-.59,3.2,16.6,16.6,0,0,0-3,4.69c-1.06,2.49,1.59,4.78,3.79,2.93,2-1.67,4-3.33,6-4.93a1.83,1.83,0,0,0,.93.1c3.8-.69,7.27-1.83,11.21-1.66a30.58,30.58,0,0,1,9.14,1.93c-.15,1.53,1.88,2.8,3,1.48l.11-.15.22.11a18,18,0,0,1-.25,2.17,2.29,2.29,0,0,0,.1,1.19,174.1,174.1,0,0,0-23.18-.07,11.36,11.36,0,0,0-3.79.34c-3.08.33-6.14.77-9.18,1.37-2.59,2.51-5.11,5.09-7.59,7.71.4-.16.81-.29,1.23-.42a30.79,30.79,0,0,0-7.48,6.61,17.82,17.82,0,0,0-1.39,2l-2.41,2.63c-.65,1.14-1.25,2.31-1.78,3.5a3,3,0,0,0,1.64.49l0,.44c-.27,1.31-.47,2.64-.61,4s-.26,2.63-.37,3.95a24.14,24.14,0,0,0-.46,8c0,1.19-.11,2.38-.16,3.57a3.73,3.73,0,0,0,.81,2.59v.35c3.13,7.47,5.34,16.59,1.29,23.63l.06.38c-.34,2.05-.82,4.06-1,6.13-.29,2.8-.26,5.64-.32,8.46-.11,5.36-.26,10.73-.33,16.09-.14,10.9-.11,21.8-.16,32.7-.11,21.63-.22,43.26-.19,64.88,0,21.81-.55,76.07-.44,97.87.1,21.46.51,42.94.21,64.4-.23,16.55-3.66,35.15,1.35,51.35a2.14,2.14,0,0,0,0,2.8,17,17,0,0,0,1.66,1.81,42.15,42.15,0,0,0,3.16,6c2.42,3.83,7.52,2.31,8.84-.84l.41,0c6.21.68,12.53.64,18.77.87,13.18.49,26.39.66,39.58,1,26.44.64,40.31-1.12,66.76-.71l15.79,1.51c26.06.4,52.15,1,78.21.19,14.57-.46,29.14-1.4,43.63-3.12,2.71-.33,5.47-.58,8.2-1a3.84,3.84,0,0,0,2.71,2.88A7.52,7.52,0,0,0,243,529.8a5.13,5.13,0,0,0,2.66.83c3,0,4.63-2.29,5-5a500,500,0,0,0,3.78-62.6q0-15.58-1.27-31.11C252.76,426.86,252.14,421.75,251.32,416.7ZM218.91,101.76l2.17.26c-1.5.07-3,.08-4.48,0C217.37,102,218.14,101.87,218.91,101.76Zm-28.65.75,3.18,1.09-3.2-.38A3.37,3.37,0,0,0,190.26,102.51ZM56.61,107.12l-2.24.08a1.37,1.37,0,0,0,0-.19ZM33.49,121.5l1.84-1a56.07,56.07,0,0,1,6.55-3.57C47,114.69,52.55,114.77,58,114.6s11.26-.52,16.9-.55q1.83,0,3.66,0c4.28.5,61.21.74,65.49,1.23,19.86,2.3-23.3-1.46-4.15-.47,11.45.58-20.6-.59-32.5-.34-2.26,0,4.2.13,4.49,0,17.2,1.29,32.52.41,49.72,1.07l68.82,2.66c4,.16,10.14-.46,13.48,2.4,1.72,1.47,1.5,3.76,1.53,5.81a13.09,13.09,0,0,0,1.54,6.92l-1.71,13.53c-.87,6.91-2.1,14.67-.92,21.8a11.74,11.74,0,0,1-3.66,1c-4.7.46-9.55.19-14.27.22q-15.06.09-30.13,0-30.14-.14-60.26-.82c-40-.91-3.08-1.12-43-3a206.08,206.08,0,0,0-31.62.86c-8.58.9-17.39,1.75-25.27-2.29-.24-1.72-.32-3.46-.39-5.2-.23-5.78-.19-11.56-.45-17.33a100.2,100.2,0,0,0-2.05-16.57c-.17-.8-.32-1.61-.43-2.41A13.65,13.65,0,0,1,33.49,121.5ZM30,168.74c.15.68.32,1.35.53,2l-1.45.07A3,3,0,0,0,30,168.74ZM28.71,141c.11,2.44.17,4.88.21,7.32l-.12-.38c0-2.32-.05-4.63-.1-6.95Zm-4.07,29.6a2.93,2.93,0,0,0,.53.47l-1,.06C24.36,170.93,24.5,170.75,24.64,170.57Zm-3.29-19.06c0,1.28,0,2.55.13,3.8a24.51,24.51,0,0,1-1.3,8,7.66,7.66,0,0,1-2.25,3.51c-1.52,1.15-3.87,1.19-5.76,1.36A30.69,30.69,0,0,0,21.35,151.51ZM8.15,98.63c-.1.12-.21.23-.31.34l-.63-.34c0-.15-.07-.3-.11-.45Zm-.52,7.46,1.33.85a1.34,1.34,0,0,0-1.16,1.22c-.07-.17-.15-.34-.22-.52l-.7-.6ZM-42.86,132c.21-.35.43-.71.66-1.06a75.1,75.1,0,0,1,6.36-8.49,52.89,52.89,0,0,1,8.31-4.12,49,49,0,0,1,20.6-3.81c6.22.29,9.67,4.47,12.27,9.7,5,10.11,11.56,25.92,1.42,34.92-4.91,4.34-11.81,7.53-18,9.36a37.64,37.64,0,0,1-3.91.93,46.8,46.8,0,0,1-12.52-2.08,22,22,0,0,1-5.78-2.88c-3.54-3.5-6-8.2-7.93-12.69-.64-1.46-1.43-3.19-2.12-5.05A39.37,39.37,0,0,1-42.86,132Zm-3.39,30.71-.15-2.56a31.07,31.07,0,0,0,6.36,8c.3.36.6.71.92,1.06.16.18.33.35.5.53l-.69,0c-1.31-.82-2.6-1-3.82-2.14l-.8-.77c0-.27,0-.54-.09-.82A3.71,3.71,0,0,0-46.25,162.7Zm10.18,14.84,2,.08-5.43.4A4.24,4.24,0,0,0-42,179a1.46,1.46,0,0,0-1.63-.16l-.18.07a1,1,0,0,0-.07-.15,2.13,2.13,0,0,0-1.06-.94l0-.83C-42.08,177.66-38.66,177.41-36.07,177.54ZM243.82,412c0,1.92,0,3.85,0,5.75.08,5.09.26,10.18.47,15.27q.63,15.28.56,30.6-.09,17.35-1.38,34.66c-.08.29-.16.57-.25.85-.9,2.93-1.93,5.81-2.92,8.71s-2.11,6-3.26,9c-.75.24-1.51.44-2.27.61-5.66,1.25-11.62,1.64-17.38,2.22-12.15,1.24-24.35,2-36.55,2.35-25,.8-50.08.26-75.11-.1-50.33-.72-23.88.28-74.21-.45-14.23-.2-28.47-.19-42.7-.27-7,0-14.09.06-21.14.08-2.72,0-5.7.06-8.63-.17-6.57-14.54-3-32.3-2.61-47.69.59-21.22,0-42.51,0-63.73-.18-42.91.13-118.28-.47-161.19l-.51-36.34c-.08-5.88-.29-11.76-.46-17.65,0-.28,0-.56,0-.85a21.33,21.33,0,0,1,5.17-6c2.75-.52,5.52-1,8.28-1.5q4.38-.19,8.74-.47c.78,0,1.57.06,2.35.07,5.89.1,11.77.2,17.65.25,11.59.11,23.19-.1,34.78-.15,23.36-.08,34.13-1.89,57.48-1.41,46.79,1,29.38,2.89,76.16,4.24q30.89.9,61.78,1.71a4.38,4.38,0,0,0,1.81,1.13c4.08,1.4,8.63,2.51,12.39,4.78.18,2.11.36,4.21.48,6.32.39,6.32.48,12.65.66,19,.35,13.14.83,26.28,1.35,39.42,1,25.58,3.14,51.34.92,76.91C243.8,351.62,240.69,398.33,243.82,412Z" transform="translate(58.35 -88.79)"/><path class="cls-4" d="M14.62,120.8a3.05,3.05,0,0,0-2.86-1,31.35,31.35,0,0,0-8.32-7.69c-6.86-4.34-15.49-4.94-23.39-4.3-7.63.61-14.78,2.71-20.56,7.9a.86.86,0,0,0-.13.14,25.43,25.43,0,0,0-7.43,13.87c-1.77,8.61-2.58,17.92,1.19,26.08a47.59,47.59,0,0,0,7.13,10.45c.93,1.09,1.9,2.16,2.92,3.16a4.29,4.29,0,0,0,2.58,2.33l.22.08a20.77,20.77,0,0,0,4.09,2.37c7.14,3,16.23,2.15,23.67.63a41.41,41.41,0,0,0,6.63-1.94,3.91,3.91,0,0,0,1.38-.2,22.3,22.3,0,0,0,4.16-1.89,33.18,33.18,0,0,0,13.42-13.15,3,3,0,0,0,2-2.26,27.13,27.13,0,0,0,.74-4.52A33,33,0,0,0,14.62,120.8ZM7.1,153.18c-2.25,4.73-6.91,7.37-11.85,8.53a53,53,0,0,1-16.43,1.08,12.37,12.37,0,0,1-7.75-3.1A13.34,13.34,0,0,1-35.42,153a22.43,22.43,0,0,1-3.86-7.25,19.33,19.33,0,0,1,2.81-17.33c4.09-5.65,10.09-7.63,16.82-7.78,6.57-.15,12.94.68,18.23,4l.06.06c4.93,1.57,7.79,6.37,9.08,11.53C9.08,141.72,9.55,148,7.1,153.18Z" transform="translate(58.35 -88.79)"/><path class="cls-5" d="M259,175.73q0-19.17-.24-38.33c-1-6.42-1.7-12.87-2.52-19.3a44.89,44.89,0,0,0-1.73-4.33,2.13,2.13,0,0,1-.84-1.81l-.11-.23q-1.64-2.12-3.38-4.14a26.78,26.78,0,0,1-3-2.87,29.46,29.46,0,0,1-2.37-3.12l-2-2.23h0a35.29,35.29,0,0,1-5.45-4.88c-1.38-.38-2.77-.72-4.14-1.13-15-.77-29.95-1.56-44.93-1.71-9.53-.09-19-.57-28.48.12s-18.4.12-28,.08c-11.06,0-1.57.08-40.41,1.15-13.63.38-27.38.68-41,1.64a.64.64,0,0,1,0-.07c-2.6.41-5.27.58-7.94.84l-.67.08a26,26,0,0,0-4.55,2.24c-2.33,1.47-4.66,5.81-7.87,5.07-1.42-.32-2.4-1.57-3.3-2.6a34.22,34.22,0,0,0-5.35-5.07c-.63-.47-1.28-.91-1.94-1.34-.78-.22-1.53-.5-2.18-.74-2.17-.78-4.28-1.72-6.42-2.59A25.64,25.64,0,0,0,3.07,88.8c-3.26,0-6.51,0-9.78.07h-.62a33.74,33.74,0,0,0-15.44,3.65c-3.13.61-6,3.27-8.41,5.2a65,65,0,0,0-8.28,7.89,61.28,61.28,0,0,0-5.81,7.6c-1.27,1.18-2.6,2.51-2.55,4.2a.82.82,0,0,0,.06.28c-.11.23-.22.47-.32.7a35.35,35.35,0,0,0-2,4.12,46.32,46.32,0,0,0-4.61,12.41c-.08,1.48-.23,3-.38,4.43q.19,3.09.28,6.18l.84,3.38c1.5,6.17,3.56,12.95,2.63,19.35-.55,3.71-2.08,7.14-3.45,10.62a5,5,0,0,0-1.56,3.84,2.94,2.94,0,0,0,.14.64c-.39,1.93-.78,3.85-1.13,5.78a94.93,94.93,0,0,0-.08,9.84,133.77,133.77,0,0,1-.21,14.16,3.6,3.6,0,0,0,.43.52c-.2,15.89-.34,31.91-.45,48.27-.36,53.32-1,139.1-.63,192.41.15,22.07.36,40.48.66,62.54a104.15,104.15,0,0,0,3,10.27,25.7,25.7,0,0,0,2.25,3.28,35.83,35.83,0,0,0,12.11,4.21c3.26.61,7,.41,10.68.55.06,0,.13-.09.19-.15,15.74-.31,31.47,1.29,47.2.89,25.06-.63,50.12-.22,75.18-.66,49.93-.87,11.62-.11,61.54,1.24,13.82.38,27.63-2.25,41.43-1.66,6.9.29,13.81-1.48,20.71-1.12,6.44.34,12.94,1,19.39.76,1,.14,2.09.24,3.15.29a22.78,22.78,0,0,0,7.41-.62,30.4,30.4,0,0,0,8.86-11.89c1.13-4.35,1.4-9,2-13.49.15-45.08.93-119.49,1.08-164.57q.25-78.85.35-157.72c-.84-3.7-1.18-7.15,0-10.75ZM47.11,98.09a67,67,0,0,1,10.6,0,2.38,2.38,0,0,1,.81-.14c3.19,0,6.39.16,9.58.24,5.52-.28,11.05-.55,16.57-.74,19.53-.67,24.3-1.22,43.82-1.69,19.34-.47-23.3-1.11-4-.18,9.42.46,18.89.65,28.32.2s18.81-.58,28.27-.65c17.72-.13,35.49,1,53.21,1.93a8.33,8.33,0,0,0,1.56,1.27,16.49,16.49,0,0,0,3.2,1.86c.55.77,1.09,1.55,1.62,2.33s1.06,1.69,1.66,2.49a3.47,3.47,0,0,1-2.19,2.8,9.34,9.34,0,0,1-1.42.22,2.41,2.41,0,0,0-.48.08c-45.51-2.76-91.08-4.6-136.67-5.78-49-1.26-10.76,2.85-58.88,2.88l-.75.2a3.1,3.1,0,0,0-.06-.39,7.41,7.41,0,0,1-.18-1.1C43.43,102,45.68,100.23,47.11,98.09Zm-78.19,5.23A34.37,34.37,0,0,0-26.92,98a15.5,15.5,0,0,1,7.1-3.74,3.2,3.2,0,0,1,.86-.06,25.46,25.46,0,0,1,8.73-2.89A32.52,32.52,0,0,1-.1,91.6h0a26,26,0,0,1,18.71,9,12.82,12.82,0,0,1,3.54,4.86c-.83,2-1.67,4-2.51,5.94a6.46,6.46,0,0,1-2.42,3.21c-.2-.23-.39-.46-.56-.7-1.26-1.68-2.39-3.43-3.71-5.07-3.11-3.85-7.27-5.77-11.9-7.23-6.29-2-14.44-3.55-20.74-.9a22,22,0,0,0-4.12.62,19.08,19.08,0,0,0-4.51,1.59c-.62.08-1.24.21-1.86.33-.3.06-.62.1-.92.17A.48.48,0,0,0-31.08,103.32Zm-6.52,11.75c12.76-9.38,32.31-8.79,44.42.34A38.87,38.87,0,0,1,20.75,137a18,18,0,0,0,.36,6.22,2.68,2.68,0,0,0,.31.66c-.15,1.45-.33,2.9-.51,4.34a58.06,58.06,0,0,1-1.36,7.63l-.18.44a2.72,2.72,0,0,0-1.29,2.29c0,.09,0,.19,0,.28C13.37,167,5.78,171.5-2.75,173.52a57.11,57.11,0,0,1-10.08.81c-3.1-.16-5.77.42-8.46.2l-.05-.06c-1.42-1.52-3.85-2-6.26-2.07-6.53-3.2-12.24-7.55-16.26-13.51C-52.31,146.34-50.65,124.67-37.6,115.07ZM251.93,254.78c-.23,53.2-1,138.87-1.15,192.07-.08,24.18-.16,45.24-.24,69.42a57.12,57.12,0,0,1-1.45,7.41c-.85,1.19-1.9,2.12-2.68,3.23a7.55,7.55,0,0,1-1.85.87c-2.41.68-5.32.32-7.8.46-1.11.07-2.21.17-3.31.28-4.17-.49-8.39-.66-12.59-.91q-9.57-.54-19.15-1c-12.43-.61-24.85,4.14-37.29,3.77q-37.54-1.11-75.13-1.16c-49.94-.13-11.66-1.16-61.58.46-19.47.63-39-.88-58.42,0-2.62-1.21-6.85-.73-9.1-.77-1.8,0-3.69-.51-5.52-.69a9.57,9.57,0,0,1-2.59-1.53c-2.84-2.46-3.58-6.69-4.71-10.26-.47-45.36-.16-119.54-.17-164.92,0-48.13.25-93.72.74-141.35,1-4,.46-8.46.16-12.41,0-.1,0-.2,0-.3l0-2.75v-.57a5.36,5.36,0,0,0,.72-1.31A22.74,22.74,0,0,1-50,182.59c.18-.17.38-.34.58-.51A16.78,16.78,0,0,1-45,179.44l.1,0h2c3.17,0,6.38-.26,9.54-.49a3,3,0,0,0,1.28-.38H-32c2.45.12,5.76,1,8.36.45a19.6,19.6,0,0,0,3,.34c6.56.22,13-1.72,19.52-1.37a2.72,2.72,0,0,1,1,.24q3.83-.69,7.68-1.19c4.42-.57,8.88-.94,13.34-1.09,1.53.33,3.1.53,4.51.81,3.74.75,7.51,1.4,11.28,2,5.82.85,12.81,2.25,18.87,1.19,20,.39,27.38-1.05,47.35-.56,56.93,1.38,38.19,0,95.11,1.27l44.37,1a6.58,6.58,0,0,1,5.06.11l1.06,0a4.22,4.22,0,0,0,.21.85c2.35,2.14,3.26,6.41,3.18,10.65l.31.17C252,213.86,252,234.33,251.93,254.78Zm.33-82.46a14.5,14.5,0,0,1-2.78,3.12c-13.71-.43-27.43-.73-41.14-1.09q-42.69-1.11-85.39-2.13c-53.69-1.32-20.38,1.4-72.95,1.06-4.2-.59-8.51-.77-12.64-1.16-1.68-.16-3.36-.3-5-.45a6.49,6.49,0,0,1-2-1c-1.61-2.19-2-5.14-2.24-7.94-.33-4-.49-8-.66-12v-.17a36.62,36.62,0,0,0,.54-8.5c.11-1.74.22-3.48.32-5.22.28-4.62.56-9.25.81-13.87a32.41,32.41,0,0,1,1.1-6.65c.19-.29.4-.56.61-.84a3.73,3.73,0,0,0,1.24-1.15c.16-.23.31-.46.46-.7l.09-.09a11.14,11.14,0,0,1,4.76-2.46c1.52-.36,2.63-.36,3.64-1.34,20.89.07,29.18-1.91,50.06-1.69,51.21.55,26.75-1.27,77.93.73q38.31,1.5,76.59,3.85c2,1.35,4.17,2.51,5.45,4.55a4.36,4.36,0,0,1,.23.42c.14.56.26,1.13.37,1.7a2.14,2.14,0,0,0,.4.88,11.94,11.94,0,0,0,1.09,4.17Q252.45,148.34,252.26,172.32Z" transform="translate(58.35 -88.79)"/><path class="cls-6" d="M128.63,123.57A64.29,64.29,0,0,0,115,151.44c-2.88-8-3.75-16.67-4.28-25.09a1.8,1.8,0,0,0-3-1.26,56.66,56.66,0,0,0-14.4,24.43c-3.39-8-6.44-16.23-10-24.2-.54-1.21-2.32-.32-2,.87,2.38,10.53,6.57,20.71,10.72,30.66.69,1.66,3.61,2.28,4,0a58.38,58.38,0,0,1,11.62-26.2c1,9.63,2.16,19.15,6.59,27.95.89,1.79,3.16.67,3.36-.91a66.65,66.65,0,0,1,13.32-31.95C132,124.22,129.92,122,128.63,123.57Z" transform="translate(58.35 -88.79)"/><path class="cls-6" d="M142.35,145a78.26,78.26,0,0,0-1.41-11.73c-.35-1.58-2.68-1.15-2.74.37-.14,3.78,0,7.57-.13,11.36,0,1.81-.11,3.62-.22,5.44s-.52,3.72.19,5.49c.61,1.52,2.89,2.24,3.79.5C143.48,153.25,142.56,148.47,142.35,145Z" transform="translate(58.35 -88.79)"/><path class="cls-6" d="M140.28,124.27a2,2,0,0,0-2.11.1l-.3.17a1.65,1.65,0,0,0,0,2.82l.31.18a2,2,0,0,0,3.07-1.59A2,2,0,0,0,140.28,124.27Z" transform="translate(58.35 -88.79)"/><path class="cls-6" d="M180.11,128.86c-3.9,0-8,3.29-11,5.56a65.17,65.17,0,0,0-6,5.24,2,2,0,0,0-.56.37c0-.48,0-1,0-1.43,0-2.72,0-5.43-.12-8.14-.07-2.39.33-5.25-1-7.33a1.44,1.44,0,0,0-2.45,0c-1.22,2-.86,4.54-.94,6.82-.1,2.88-.24,5.76-.33,8.65-.19,5.59-.49,11.18-.87,16.77-.23,3.37,5.13,3.4,5.28,0s.24-6.54.32-9.8c.48-.41,1-.8,1.46-1.2,1.42,2.21,2.86,4.42,4.34,6.6,1.6,2.36,3.15,6.12,6,7a1.68,1.68,0,0,0,2.1-1.6c.05-3-3.17-5.68-4.89-7.89s-3.3-4.13-5-6.18q2.81-2.17,5.72-4.22c2.94-2.06,7.12-4,9.05-7.08A1.43,1.43,0,0,0,180.11,128.86Z" transform="translate(58.35 -88.79)"/><path class="cls-6" d="M194.9,151.74c0-2.19-.1-4.38-.16-6.56-.13-4.54-.19-9.09-.47-13.62a1.62,1.62,0,0,0-3.23,0c-.28,4.53-.34,9.08-.47,13.62-.06,2.18-.13,4.37-.16,6.56s-.26,4,.62,6a1.89,1.89,0,0,0,3.25,0C195.16,155.77,194.93,153.86,194.9,151.74Z" transform="translate(58.35 -88.79)"/><path class="cls-6" d="M193.52,123.77a1.59,1.59,0,0,0-.06-1.89,1.76,1.76,0,0,0-1.26-.8h-.49a1.75,1.75,0,0,0-1.25.79,1.57,1.57,0,0,0-.07,1.9l.11.16h0l.1.14a1.59,1.59,0,0,0,2.7,0l.11-.14h0Z" transform="translate(58.35 -88.79)"/><path class="cls-7" d="M127.25,129.32c-2.25,3.09-3.84,6.67-5.74,10-.53,1.27-1,2.55-1.47,3.7-1.94,4.74-4.1,9.86-5.23,14.93a55.71,55.71,0,0,1-4.06-10.15c-1.45-3.14-1.57-6.59-2.15-10.08-.3-1.86-.69-3.74-.8-5.6-.07-.13-.13-.25-.21-.37a.64.64,0,0,0-.59-.34c0-.13,0-.25.07-.37a.65.65,0,0,0,0-.24l-.47.27a32.94,32.94,0,0,0-3.14,3c-.4.78-.78,1.57-1.18,2.33-1.12,2.16-2.13,4.35-3,6.61-1,2.43-1.93,4.88-2.76,7.37a24.82,24.82,0,0,0-1.57,6l-.08,0a1.56,1.56,0,0,0-.33.14,5.29,5.29,0,0,0-1-1c-.12-.1-.25-.18-.38-.27a1.55,1.55,0,0,0,0-.68,44.35,44.35,0,0,0-2.79-7.31q-1.38-3.41-2.77-6.81c-1.89-4.66-4-9.2-5.36-14.06a1.12,1.12,0,0,0-.39-.59,2.56,2.56,0,0,0-.22.39,8.06,8.06,0,0,0-.55,3.26,13.31,13.31,0,0,0,.26,2.35,102.17,102.17,0,0,0,3.41,9.94c1,2.43,1.93,4.85,2.89,7.28a49.06,49.06,0,0,0,2.58,6.22.83.83,0,0,0,.22.57c.34.34.64.72,1,1.09a1.19,1.19,0,0,0-.11.26c1.44,1.05,3.13,1.74,4.17,1.35a3.76,3.76,0,0,0,1.67-1.46c0-.05,0-.09,0-.13a33.82,33.82,0,0,0,2.4-5.76c.83-2.15,1.65-4.3,2.5-6.43s1.73-4.25,2.54-6.4c.5-1.33,1.15-2.68,1.69-4.06a37.71,37.71,0,0,0,1.67,13.26c.84,2.51,1.84,5,2.8,7.42.72,1.86,1.43,3.9,3,5.21a.61.61,0,0,0,.91-.08,1,1,0,0,0,1.75.23,53.53,53.53,0,0,0,4.25-9.09,43.61,43.61,0,0,1,1.35-4.44c1.4-5.52,3.18-10.9,6.38-15.65.33-.53.69-1.06,1.07-1.57.3-.7.59-1.41.88-2.11C129.19,128.09,128.19,128.66,127.25,129.32Z" transform="translate(58.35 -88.79)"/><path class="cls-7" d="M139,154.28a4,4,0,0,1-.59-3.35c-.26-.5-.51-1-.73-1.55a1.07,1.07,0,0,0-.56.44c.05,1.51.12,3,.1,4.51.49,2.09,1.63,3.78,3.92,3.9a2.21,2.21,0,0,0,1.78-2.16,1.43,1.43,0,0,0-.35-.91A2.61,2.61,0,0,1,139,154.28Z" transform="translate(58.35 -88.79)"/><path class="cls-7" d="M136.65,126.85c-.26,1.49,2.31,2.14,3.43,2,.92-.15,1.45-.94,1.83-1.82a1.76,1.76,0,0,0-1.89-.72,4.58,4.58,0,0,1-2.39-.14.82.82,0,0,0-.94.31A3,3,0,0,1,136.65,126.85Z" transform="translate(58.35 -88.79)"/><path class="cls-7" d="M160.25,156c-2.27-1.33-1.55-4.46-1.68-6.65s-.31-4.44-.47-6.66a.58.58,0,0,0-.55-.5c-.29,3.21-.25,6.45-.47,9.65-.13,1.93-.81,4.57.17,6.35a2.67,2.67,0,0,0,2.69.18A1.31,1.31,0,0,0,160.25,156Z" transform="translate(58.35 -88.79)"/><path class="cls-7" d="M180.24,129.15l-.1-.05c-2.29,2.59-4.34,5.41-7,7.61-2.19,1.8-5.45,2.89-6.33,5.72a.87.87,0,0,0,1.24.09c2.06-1.71,4.15-3.39,6.34-4.87,2-1.36,4.29-2.39,6-4.3a1,1,0,0,0,.05-1.11,2.11,2.11,0,0,0,.37-.3c.59-.63,1.18-1.73.47-2.54A.94.94,0,0,0,180.24,129.15Z" transform="translate(58.35 -88.79)"/><path class="cls-7" d="M173.91,156.29l-.58-.17c-.26-.09-.51-.16-.75-.22a55.89,55.89,0,0,0-3.75-5.61,60.74,60.74,0,0,0-4.1-5.72.82.82,0,0,0-.95-.2c.63,1.78,1.06,3.63,1.79,5.39a23.61,23.61,0,0,0,4.07,6c1.26,1.49,3.37,3.42,5.17,3.36l.17-.09a1.3,1.3,0,0,0,.58-.83,1.24,1.24,0,0,0,.34-1.48A4.32,4.32,0,0,1,173.91,156.29Z" transform="translate(58.35 -88.79)"/><path class="cls-7" d="M192.76,156c-1.19.12-.91-3.85-1-4.65A18.4,18.4,0,0,0,191,147a.37.37,0,0,0-.72.09,35.32,35.32,0,0,1-.16,5.14c-.1.64-.28,1.29-.42,1.94.26,1.32.51,2.63.84,3.94a2.76,2.76,0,0,0,2.59.56C194.57,158.27,194.34,155.79,192.76,156Z" transform="translate(58.35 -88.79)"/><path class="cls-7" d="M189.9,123.29a3.61,3.61,0,0,0,.33,1.54c.79,1.5,2.73.53,4.15-.47a1.48,1.48,0,0,0-1.09-1.19,5.3,5.3,0,0,0-3.08-.06A1.33,1.33,0,0,0,189.9,123.29Z" transform="translate(58.35 -88.79)"/></svg>