<svg id="Слой_1" data-name="Слой 1" xmlns="http://www.w3.org/2000/svg" viewBox="0 0 321.74 465.72"><defs><style>.cls-1{fill:#536569;}.cls-2{fill:#a7d2af;}.cls-3{fill:#7a8d90;}.cls-4{fill:#414f51;}</style></defs><title>anyel</title><path class="cls-1" d="M279.74,169c.07.29.16.36,0,0Z" transform="translate(33.23 46.21)"/><path class="cls-1" d="M280.67,348.92c-.39-9.48-.62-80.06-.85-89.54q-.69-27.93-.49-55.86.1-14.24.43-28.45c0-1,.09-2.07.08-3.1,0-.17,0-.35,0-.52q-.92-5.94-.33-2.88c.1.19.17.33.22.44a2.12,2.12,0,0,1-.07-.66c.11-2.4-.06-4.84-.08-7.24q-.06-7-.07-14c0-3.63,0-7.26,0-10.89a11.15,11.15,0,0,0,.75-3.78c.45-16.28.75-32.56,1-48.84a10.67,10.67,0,0,0-2.77-7.11,60.26,60.26,0,0,0,1.57-11.06A25.2,25.2,0,0,0,270.3,44.4c-5.38-4.15-11.26-5.8-18.06-5.94-6.24-.13-26.58,0-32.82,0-12.33,0-24.66-.92-37-.92-12.5,0,48.89-1.88,36.38-1.89l-74.49,0c-13.89,0-27.77,0-41.67.24-11,.17-22.14.52-33.14-.62a72.67,72.67,0,0,1-12.07-3.08c-3.66-1.91-7-4.37-10.7-6.12a49,49,0,0,0-7.16-2.82,146.29,146.29,0,0,1-5-19c-.6-7.6-1.08-15.2-1-22.84C33.6-29.72,25-39,14.23-40.47a24.94,24.94,0,0,0-6.17-.08l-.31-.18A71.64,71.64,0,0,0-5.67-38.22a2.46,2.46,0,0,1-1.78-.16,19.53,19.53,0,0,0-3.48,3,2.28,2.28,0,0,1-3,.44c-3.27,6.43-8,11.93-11.31,18.34S-28.1-4.07-27.47,2.45a5.17,5.17,0,0,1,1.31,2.9c1,7.82,1.52,16.32,0,24.29A4.39,4.39,0,0,1-25,35.84c-5.13,7.95-4,19.53-2.61,28.44A5.43,5.43,0,0,1-32,70.44a284.43,284.43,0,0,0-.61,44.67c.69,11.48,1.64,23,2.21,34.45q-.51,7.27-.92,14.56c3-.74,6.34.77,5.88,4.58-1.41,11.64-.89,23.35-1.49,35-.57,11.19-1.79,22.28-2.07,33.49-.12,4.61-.29,9.19-.51,13.78A4.54,4.54,0,0,1-28,256c-2,7.36-1,15.35-1.65,22.9-.76,9-.28,18.09-.9,27.12a4.75,4.75,0,0,1-.15.93c.08,24.11-.17,46.46-.74,58.21-.43,8.66-1.5,22,3.37,29.74,4.28,6.83,11.85,11.37,19.73,12.7,6.89,1.17,17.26,1.13,24.21,1.16l21.77.1c15.88.07,31.82-.26,47.69.38a14,14,0,0,0,1.45,0,170,170,0,0,0,26.41,4.84,61.1,61.1,0,0,0,11.86.38c5.64-.47,11.27-1.27,16.84-2.24a14.3,14.3,0,0,0,3.37-1c31.72-.32-10.43-1,21.33-1.25a71.28,71.28,0,0,0,11.08,1,44.8,44.8,0,0,0,8.6-.75c10.52.35,21,1.11,31.46,2.42l1.18.15-.75-.1h0l.75.1c3.28.39,20.33.42,23.34-.69a31.11,31.11,0,0,0,9,1.87c7.62.42,16.53-2.57,20.05-9.79a15.63,15.63,0,0,0,.76-1.82c6.23-6.21,8.87-19.41,9.42-28.4C282,365.62,281,357.18,280.67,348.92Z" transform="translate(33.23 46.21)"/><path class="cls-1" d="M220.17,412.89l-1.24-.17h0Z" transform="translate(33.23 46.21)"/><path class="cls-2" d="M211.22,413.64c-2.77,0-5.55,0-8.33-.06-4.64.12-9.29.45-14,.91-7,.67,14.51.74,29.13.62a4.43,4.43,0,0,1-.39-1Q214.43,413.9,211.22,413.64Z" transform="translate(33.23 46.21)"/><path class="cls-3" d="M284,97.79c-.15-10.74.33-21.71-1.56-32.33A33.15,33.15,0,0,0,278,53.22c-.45-.7-.95-1.45-1.5-2.17a4.57,4.57,0,0,0-1.15-2.11c-7.66-8.29-4.55-17.14-15.19-17.22-13.68-.11-33.8-4-47.49-4-28.08.06,5.79-.14-22.29,0-13.78.07-18.77-.64-32.55-.6-.56-.25-15.7.63-16.35.6-20.24-1-34.31,1-54.55,0-1.7-.08-7.79-.12-8.49.94-4-.7-10.15-.6-14.13-1.54C56.57,24.6,45.15,28,38.1,24a4.37,4.37,0,0,0-2.9-.55,12.48,12.48,0,0,0-5.65-3.06,28.92,28.92,0,0,0,2.51-2.45,39.2,39.2,0,0,0,7.83-13C39.44,3.12,43.48,2,43.43.22c-.08-2.37,0-3.71,0-6.08,0-1.18,0-3,0-4.23-.33-.39,0-3.08,0-3.72-.15-2.81.08-5-1.54-7.08s-.71-3.92-1.9-6.21c-.53-1-2.06-2.31-2.61-3.23a13.21,13.21,0,0,1-1.12-2.86,11.91,11.91,0,0,0-3.74-4.09c-1-.6-3.39-1.44-4.33-2,0,0-.86-1.91-.87-1.92-1.88-.17-3.31-1.22-5.17-1.13-3.72.16-5-1.83-8.78-1.78-2.39.46-3.52-.59-5.89,0-.68.18-9.67,2.94-10.16,2.69-1.23.83-4.67,7.34-5.77,8.51a2.38,2.38,0,0,1-3.64-.1A54.52,54.52,0,0,0-17-29a25.06,25.06,0,0,0-4.66,5.69A24.22,24.22,0,0,0-24.82-17C-27.15-10.07-27.53-1.79-27,5.46a20.94,20.94,0,0,0,8.63,15.8,23.77,23.77,0,0,0,4,2.29,12.76,12.76,0,0,0-1.56.4,2,2,0,0,0-3.48-.38,18.85,18.85,0,0,0-1.41,2.85,9.35,9.35,0,0,0-1.82,4,7.67,7.67,0,0,0-.4,3.18c-.23,2.89-4,5.79-4.15,8.7a72.36,72.36,0,0,0-1.42,7.56c-1.4,10.48-.16,21.05.94,31.51.17,1.64.33,3.29.48,4.93,0,1.43-.08,2.85-.1,4.28-.06,3.39-.38,6.52,1.07,9.65.21,4.63.31,9.27.24,13.91-.17,11.24-1.73,22.42-1.76,33.67,0,11,2,21.89,3.2,32.81a244.44,244.44,0,0,1,1,33.36C-24,236.6-25,320.36-25.7,343c-.4,12.4-1.22,29.56-1.12,42,.06,8.32,2.78,17.1,9.65,21.18a20.05,20.05,0,0,0,11.83,6.28,4.49,4.49,0,0,0,5-3.26c5.94.68,15.61.86,21.56,1.13,11.54.51,23.07.77,34.62.84,23.27.13,46.54-.21,69.8-.24,23.08,0,46.16.24,69.2,1.55,5.46.31,10.91.76,16.35,1.18h1.31c1.69.07,3.37.16,5.06.31a1.09,1.09,0,0,0,0,.17c3.81.26,7.63.49,11.44.61,4.3.14-2.09.3-11.05.38a3.25,3.25,0,0,0,3.12,1.75c3.54-.23,21.15-.58,24.67-1a47.91,47.91,0,0,0,9.34.39,24.42,24.42,0,0,0,13.43-5.12c5.34-3.15,8.67-9.71,9.48-15.86.66-5.1.23-14.94.11-20.06q-.18-8.22-.07-16.46c.28-22.14,2-105.34,3.57-127.42,1.56-22.34,2.71-44.67,2.9-67.07C284.77,142.08,284.28,119.93,284,97.79ZM-14.72,7.9c-2.71-4.32-2.86-9.62-2.83-14.57,0-4.76.54-9.77,3.45-13.72a27.86,27.86,0,0,1,6.53-6.08,3.7,3.7,0,0,0,2.69-1.75c.65-.4,1.31-.79,2-1.16Q-1.43-30.23.14-31c.86-.1,1.73-.14,2.55-.17a61.48,61.48,0,0,1,13.69.59,23.65,23.65,0,0,1,8.41,3.33,44,44,0,0,1,6.27,11.45c3.71,9.82,0,21.2-7.3,28.38a1.88,1.88,0,0,0-.37.53l-.14.11A31.71,31.71,0,0,1,15,17.5a34.32,34.32,0,0,1-8.76,2c-.58,0-1.15.05-1.73.06-3-1.88-7-2.64-10.13-4.22C-9.11,13.55-12.58,11.3-14.72,7.9Zm290.06,148q-.06,31.31-2,62.52c-1.35,20.9-3.16,102.89-4,123.82-.46,11.65-.63,23.31-.31,35,.06,2.23.22,9.21.25,11.49a1.69,1.69,0,0,0-.52.51c-1.2,1.9-.66,4.66-1.6,6.77a14.58,14.58,0,0,1-4.28,5.49c-4.83,3.65-11.66,3.92-17.45,4.22-1.47.07-7.38.14-12.75.19-10.72-.1-21.4-1.29-32.09-2-45.24-2.9-90.6-1.54-135.89-1.56q-19.12,0-38.25-.33c-9.83-.16-24,.34-33.82-1.84a3.68,3.68,0,0,0-1.82-.77c-8.83-1.2-8.49-17-8.29-23.7q.49-16.1,1-32.2c.68-21.62,1.52-104.35,2.09-126a282.94,282.94,0,0,0-.54-31.9c-.91-10.46-2.95-20.78-3.61-31.26-.67-10.75.62-21.46,1.07-32.2a220.41,220.41,0,0,0-.94-31.36c-.1-1-.22-2-.33-3l.09-4.91c.11-6.15.33-12.3.29-18.46,0-5.48-.2-10.95-.06-16.44l0-.86A3.9,3.9,0,0,1-17.93,46a13.64,13.64,0,0,1,3.16-7.57,8.58,8.58,0,0,1,9.19-5.78c3.43.29,6.48,1.89,9.77,2.65,2.62-.3,5.25-.53,7.89-.59.55,0,1.1,0,1.65,0C22.8,33,30.79,29.57,40.3,33.38c4.73,1.89,9.13,4.79,14.07,6.12,6,1.61,12.5,1.72,18.64,2,11.12.47,22.26.12,33.39.46,11.34.34,22.66,1.19,34,1.7Q175,45.2,209.7,45.55c10.7.11,21.36.18,32.05-.4,7.93-.44,17.44-1.17,24.19,3.81a16.56,16.56,0,0,1,5.82,7.84l.2,0a44.65,44.65,0,0,1,2.55,10.05c1.19,8.45.67,17.22.7,25.72C275.28,113.7,275.39,134.82,275.34,155.93Z" transform="translate(33.23 46.21)"/><path class="cls-4" d="M288.44,178.88c-.22-38.47-.88-75.9-.88-114.37-.82-5.42-2.67-10.68-4-16a2.32,2.32,0,0,1-1.21-1.58c-1.62-6.26-5.38-10.56-11-13.55-1-.55-2.11-1.07-3.19-1.55l-1-.55a21.31,21.31,0,0,0-4.58-1.78c-1.45-.59-2.91-1.18-4.34-1.81-15.48-.46-24.24-1.84-39.71-1.92h0c-35.56-.13-71.13-.75-106.69-1.13q-14.84-.15-29.66-.19c-5.15,0-10.27.11-15.39.26,0,0,0,0,0,0a61.89,61.89,0,0,1-15,.26l-.13-.17c-.81-1-1.94-1.38-2.93-2.18a10.36,10.36,0,0,1-2.29-2.69,14.07,14.07,0,0,1-1.82-5.28l0-.56c-.07-3.25.38-6.55.28-9.78.28-2.66.59-5.31.61-8,0-.14,0-.28,0-.42a.27.27,0,0,0,0-.18c0-.15,0-.3,0-.45a58.93,58.93,0,0,0-1.07-20.11A47.19,47.19,0,0,0,33.48-39.51a27.07,27.07,0,0,0-7.06-4.44c-13.5-4.7-29.6-1.92-41.27,6.93l-.14.11a13.73,13.73,0,0,0-2.72,3.65,74.28,74.28,0,0,0-6.44,9.52v0c-.67,1.51-1.1,3.07-1.86,5.09a38,38,0,0,0-1.89,6.48,2.89,2.89,0,0,1-.06,1c-.14.6-.25,1.19-.34,1.78-.1,1-.15,2.11-.15,3.25a1.89,1.89,0,0,0-.21.33c-.07,1.13-.12,2.26-.19,3.4,0,.72-.12,1.45-.21,2.19q0,1.49-.06,3c.11,1.08.22,2.16.28,3.21q.29,4.56.46,9.12T-28,24.2c0,.8,0,1.6,0,2.35-.12,2.88-.16,5.77-.12,8.65.06,4.67-3.24,9.33-2.7,14L-31,56.25c-.38,22.7-.67,45.4-1.05,68.1-.78,45.39,3,90.79,2.33,136.19-.35,22.08-.83,110-1.25,132,.42,3.62,1,7.24,2.74,10.36,2.34,4.21,7,6.19,11.09,8.7,1.52.23,3,.4,4.57.55,6.19.61,12.41.88,18.62,1.24,12.41.73,28.48,1.13,40.89,1.63,24.78,1,45.39-.24,70.17.68,49.51,1.83,25.12,3.06,74.66,3.63,13.87.16,41.82.22,55.69.09,5.74-.05,11.48-.14,17.21-.24,6.28-.77,12.06-3.09,16-8.06,2.78-11.45,3.61-28.26,4.43-39.61C288.4,326.22,288.69,224.29,288.44,178.88ZM57.6,29.06a1.61,1.61,0,0,0,1.24-1.32c6.53.41,13,.81,19.6.94,8.85.19,17.7.37,26.55.47l53.09.61,53.08.61c17.85.2-17.85-.15,0,0,9.88.08,7.26.95,17.13,1,7.66,0,21.55,2.23,29.21,2a11,11,0,0,1,1.83,2,7.88,7.88,0,0,1,.4.76h-.21a31.06,31.06,0,0,1-3.35-.16l-.36.11a2.5,2.5,0,0,0-.38.15c-6.33-.26-26.73-.4-33.07-.46-20.22-.17-40.44-.35-60.66.17-40.91,1.07-7.95-.87-48.85-2.25-11.57-.39-23.13-.94-34.7-1.44l-2.53-.13a39.51,39.51,0,0,1-18.78-1.81c-.31-.1-.6-.22-.9-.34A5.93,5.93,0,0,1,57.6,29.06Zm-63.39-66,.29-.19a1.7,1.7,0,0,0,.79-1.08q2.25-1,4.55-1.88l1.4-.52.51-.12c2.27-.44,6.15-.46,8.8-1.61a73.42,73.42,0,0,1,8.14.1l.62.2c1,.33,1.84.77,2.75,1.17a45.47,45.47,0,0,1,10.67,7.74A31.77,31.77,0,0,1,38-26.5a25,25,0,0,1,1.75,3.84c.08,2.66.29,5.3.63,8,.28,2.25.56,4.5.9,6.73a24.92,24.92,0,0,0,.6,3.51c-.48,1-.92,2-1.33,3-.94-9.66.07-20.31-6.2-28.35a23.85,23.85,0,0,0-12-7.85l-.07-.08C18.54-41,12.16-39.83,7.63-39.47c-4.25.34-8.67.86-12.53,2.74l-1.58.58A2.54,2.54,0,0,1-5.79-36.92ZM-22.91,2.61c-1.2-4-.59-8.53.15-12.67.5-2.72,1.14-5.36,1.9-8a14,14,0,0,1,1.08-2.76,1.83,1.83,0,0,1,.25-.88l.67-.93a36.74,36.74,0,0,1,9.4-9.21c.34-.14.7-.26,1.05-.39a2.26,2.26,0,0,1,.5-.32c.53-.27,1.08-.53,1.64-.78,1.82-.63,3.65-1.2,5.5-1.73.48-.13,1-.29,1.48-.44a54.88,54.88,0,0,1,6.48-.76c2.17-.13,4.36-.27,6.53-.19a22.66,22.66,0,0,1,5.76,1.27,16.54,16.54,0,0,1,8,6.69c2.91,3.18,5,6,6.22,10.13A36.52,36.52,0,0,1,35-10.7c-.08,3.55.21,7.16-.15,10.67-.23,2.21.42,4.38-.06,6.53-.12.26-.23.51-.36.76-.66,1.25-1.32,2.5-2,3.71-1.78,1.77-2.75,3.67-4.84,5.19l-.79.57a23,23,0,0,1-8.79,5.45c-11.78,4.21-26.31,3.34-35-6.5A25,25,0,0,1-22.91,2.61Zm-1.86,403.27.26-.26.34.38ZM280.77,130.55c0,2.77-.1,5.53-.15,8.3-.88,4.15-1.88,9.94-.52,14.22-.19,4.79,0,9.65,0,14.36,0,9,.08,18,.06,27s.1,18-.11,27c-.19,8.3-.55,16.6-.82,24.9a1.83,1.83,0,0,0-.32,1c-.3,11.29-.3,81,0,92.29A215.08,215.08,0,0,1,277.61,371a2,2,0,0,0-.21.77c-.24,4.09-.51,12.88-.76,17a56.26,56.26,0,0,1-4,16.56l-.41.52a61.11,61.11,0,0,1-5.8,3.11c-1.28.62-2.47,1.18-3.67,1.65l-2.27,0c-6.07.09-26.21.15-32.28.18q-17.68.09-35.37,0c-23.93-.19,26,0,2.11-.66-47.62-1.35-91.06-1-138.66-2.62-13.45-.46-30.55-1-44-1.23Q2.43,406.09-7.4,406l-1.48,0a3.12,3.12,0,0,0-.91-.55v-.1c-.85-.12-1.66-.25-2.44-.4-4-1-7.09-4-9.11-7.53a10.5,10.5,0,0,1-1.29-5.15,2.62,2.62,0,0,1-.61-1.52,14.27,14.27,0,0,1,0-2.06,68.58,68.58,0,0,1,0-14c.65-37.46,1.3-136,1.73-173.48.53-45.4-3.56-90.79-3.74-136.2,0-10.08,3.52-20.17,3.42-30.25a3,3,0,0,0,.35-1.52c0-1.19,0-2.39,0-3.58.16-.89.34-1.79.55-2.66a16.46,16.46,0,0,1,1.11-2.14,7.15,7.15,0,0,1,2.29-2.29,1.83,1.83,0,0,0,.83.6c1.08.39,2.17.74,3.26,1.07A38.37,38.37,0,0,0-3,30a39.86,39.86,0,0,1,6,1.13,23.53,23.53,0,0,0,8.85.28,62.44,62.44,0,0,0,8.68-1.57c2.63-.72,5.05-2,7.67-2.78a10.91,10.91,0,0,1,9,1.4l.15.05.82.38c5.27,1,9.37,4.33,14.07,6.51a48.88,48.88,0,0,0,7.39,2.08c2.76-.07,5,.15,7.71,0a20.3,20.3,0,0,1,2.55.13q13.48.84,27,1.43,30.55,1.32,61.14,1.69c40.82.5,7.7,1.87,48.5,1.64q3.87,0,7.74,0a2.54,2.54,0,0,1,1.2-.17l2.57.2h1.86l.63.16.51,0a2.32,2.32,0,0,1,1.32-.4c1.87,0,3.74-.11,5.6-.23,2.72-.32,19.54-.48,22.25-.5,2-.08,3.93-.09,5.91,0,4.73.26,11.38,1.06,14.56,5l.61.36a16.32,16.32,0,0,1,4.27,3.8,12.23,12.23,0,0,1,1.4,2.52c2.5,9.89,2.91,20,3.12,30.2.12,6.17.25,11.29.37,17.45s-.24,12.78.49,19a2.48,2.48,0,0,0,.08.41C280.88,123.68,280.83,127.12,280.77,130.55Z" transform="translate(33.23 46.21)"/></svg>