<svg id="Слой_1" data-name="Слой 1" xmlns="http://www.w3.org/2000/svg" viewBox="0 0 321.74 465.72"><defs><style>.cls-1{fill:#59525f;}.cls-2{fill:#a7d2af;}.cls-3{fill:#807789;}.cls-4{fill:#4e4752;}</style></defs><title>felan</title><path class="cls-1" d="M534.11,90.64c.07.3.16.37,0,0Z" transform="translate(-221.14 124.57)"/><path class="cls-1" d="M535,270.55c-.39-9.47-.61-80.06-.85-89.54q-.68-27.91-.49-55.86.1-14.22.43-28.44c0-1,.09-2.07.08-3.1,0-.18,0-.35,0-.52q-.91-6-.33-2.89c.1.19.17.34.22.44A2.34,2.34,0,0,1,534,90c.11-2.4-.06-4.84-.08-7.24q-.06-7-.07-14c0-3.62,0-7.25,0-10.88a11.45,11.45,0,0,0,.74-3.79c.45-16.28.75-32.55,1-48.83a10.65,10.65,0,0,0-2.77-7.11,59.4,59.4,0,0,0,1.57-11.07A25.2,25.2,0,0,0,524.67-34c-5.38-4.15-11.26-5.81-18.06-5.95-6.24-.13-26.57,0-32.82,0-12.33,0-24.65-.92-37-.93-12.5,0,48.89-1.88,36.39-1.88l-74.49,0c-13.9,0-27.78,0-41.68.24-11,.16-22.14.52-33.14-.63a73.64,73.64,0,0,1-12.07-3.07c-3.66-1.91-7-4.37-10.7-6.12A50.21,50.21,0,0,0,294-55.17a145.73,145.73,0,0,1-5-19c-.6-7.6-1.08-15.21-1-22.84.08-11.09-8.53-20.4-19.28-21.85a24.94,24.94,0,0,0-6.17-.07l-.32-.18a71.77,71.77,0,0,0-13.42,2.5,2.46,2.46,0,0,1-1.78-.15,19.53,19.53,0,0,0-3.48,3,2.28,2.28,0,0,1-3,.43c-3.27,6.44-8,11.93-11.3,18.35-3.21,6.27-2.88,12.57-2.26,19.08A5.23,5.23,0,0,1,228.21-73c1,7.82,1.53,16.31,0,24.29a4.39,4.39,0,0,1,1.15,6.2c-5.12,8-4,19.52-2.61,28.43a5.42,5.42,0,0,1-4.44,6.16,283.37,283.37,0,0,0-.6,44.68c.68,11.48,1.63,23,2.2,34.44q-.49,7.29-.91,14.57c3-.74,6.34.77,5.87,4.57-1.41,11.65-.89,23.36-1.49,35.05-.57,11.19-1.78,22.27-2.07,33.49q-.18,6.9-.51,13.77a4.55,4.55,0,0,1,1.56,5c-2,7.36-1,15.35-1.65,22.9-.76,9-.28,18.09-.89,27.12a5.3,5.3,0,0,1-.16.93c.08,24.12-.17,46.46-.74,58.21-.43,8.66-1.5,22,3.37,29.75,4.28,6.83,11.85,11.36,19.73,12.7,6.89,1.16,17.26,1.13,24.21,1.16l21.77.1c15.88.07,31.82-.26,47.69.38a14.18,14.18,0,0,0,1.46,0,167.33,167.33,0,0,0,26.4,4.84,59.57,59.57,0,0,0,11.86.38c5.64-.47,11.27-1.27,16.84-2.23a13.87,13.87,0,0,0,3.37-1.05c31.72-.31-10.43-1,21.33-1.24a72.52,72.52,0,0,0,11.08,1,46.39,46.39,0,0,0,8.6-.75c10.52.35,21,1.11,31.46,2.42l1.19.15-.76-.1h0l.76.1c3.27.39,20.32.42,23.33-.7a30.53,30.53,0,0,0,9,1.87c7.63.43,16.53-2.56,20.06-9.78a17.47,17.47,0,0,0,.75-1.82c6.23-6.21,8.87-19.41,9.43-28.4C536.37,287.26,535.37,278.82,535,270.55Z" transform="translate(-221.14 124.57)"/><path class="cls-1" d="M474.54,334.53l-1.23-.17h0Z" transform="translate(-221.14 124.57)"/><path class="cls-2" d="M465.6,335.28c-2.78,0-5.56,0-8.34-.07-4.64.13-9.29.46-14,.91-7,.68,14.51.75,29.13.62a4.25,4.25,0,0,1-.39-1Z" transform="translate(-221.14 124.57)"/><path class="cls-3" d="M538.33,19.43c-.15-10.75.33-21.71-1.56-32.34a33.27,33.27,0,0,0-4.4-12.24c-.45-.7-1-1.44-1.5-2.17a4.57,4.57,0,0,0-1.15-2.11c-7.66-8.28-4.54-17.13-15.19-17.22-13.68-.1-33.8-4-47.49-4-28.08.06,5.79-.14-22.29,0-13.78.07-18.77-.64-32.54-.61-.57-.25-15.71.64-16.36.61-20.24-1-34.31,1-54.55,0-1.7-.08-7.79-.12-8.49.94-4-.71-10.15-.61-14.13-1.55-7.74-2.53-19.16.91-26.21-3.15a4.42,4.42,0,0,0-2.89-.56A12.65,12.65,0,0,0,283.92-58a28.92,28.92,0,0,0,2.51-2.45,39.17,39.17,0,0,0,7.84-13c-.46-1.8,3.59-2.91,3.53-4.69-.08-2.37-.05-3.71,0-6.09,0-1.17-.05-3,0-4.22-.33-.4,0-3.08,0-3.73-.15-2.8.09-4.95-1.54-7.07s-.71-3.93-1.9-6.21c-.53-1-2.05-2.32-2.61-3.23a14.32,14.32,0,0,1-1.12-2.86,11.85,11.85,0,0,0-3.74-4.1c-1-.59-3.39-1.43-4.33-2,0,0-.86-1.92-.87-1.92-1.88-.18-3.31-1.22-5.17-1.14-3.72.16-5-1.82-8.78-1.78-2.39.46-3.52-.58-5.89,0-.68.18-9.67,2.94-10.16,2.69-1.22.82-4.67,7.33-5.77,8.5a2.37,2.37,0,0,1-3.64-.09,56.22,56.22,0,0,0-4.88,4,25.33,25.33,0,0,0-4.66,5.7,24.22,24.22,0,0,0-3.19,6.37c-2.32,6.92-2.71,15.2-2.16,22.44A21,21,0,0,0,236-57.11a23.08,23.08,0,0,0,4,2.3,11.17,11.17,0,0,0-1.56.4,2,2,0,0,0-3.48-.38,18.85,18.85,0,0,0-1.41,2.85A9.18,9.18,0,0,0,231.77-48a7.54,7.54,0,0,0-.41,3.19c-.23,2.89-4,5.79-4.15,8.69a70.21,70.21,0,0,0-1.41,7.56c-1.41,10.48-.17,21.06.93,31.51.17,1.65.33,3.29.48,4.94,0,1.42-.08,2.85-.1,4.28-.06,3.38-.37,6.52,1.08,9.65.21,4.63.3,9.27.23,13.9-.17,11.25-1.72,22.43-1.76,33.68,0,11,2,21.88,3.2,32.8a246.26,246.26,0,0,1,1,33.37c-.56,22.66-1.52,106.42-2.23,129.07-.4,12.4-1.22,29.56-1.12,42,.06,8.32,2.78,17.1,9.65,21.18A20.09,20.09,0,0,0,249,334.07a4.47,4.47,0,0,0,5-3.26c5.94.69,15.61.87,21.56,1.13,11.54.52,23.07.78,34.62.84,23.27.13,46.54-.2,69.8-.23,23.08,0,46.16.24,69.21,1.55,5.45.31,10.9.75,16.35,1.18h1.3c1.69.07,3.37.16,5.06.3a.84.84,0,0,0,.05.17c3.81.27,7.63.5,11.45.62,4.29.14-2.1.29-11.06.37a3.23,3.23,0,0,0,3.12,1.75c3.55-.23,21.15-.57,24.67-1a47.13,47.13,0,0,0,9.34.38A24.38,24.38,0,0,0,523,332.74c5.34-3.15,8.68-9.72,9.48-15.86.67-5.1.23-14.94.11-20.06q-.18-8.24-.07-16.46c.28-22.14,2-105.34,3.57-127.42,1.56-22.35,2.71-44.68,2.9-67.08C539.14,63.72,538.65,41.57,538.33,19.43ZM239.65-70.47c-2.71-4.32-2.86-9.61-2.83-14.56,0-4.76.54-9.77,3.46-13.72a27.62,27.62,0,0,1,6.52-6.08,3.7,3.7,0,0,0,2.69-1.75c.65-.41,1.31-.79,2-1.16q1.49-.86,3.06-1.59c.86-.1,1.73-.14,2.55-.17a60.84,60.84,0,0,1,13.69.59,23.63,23.63,0,0,1,8.41,3.32,44.27,44.27,0,0,1,6.27,11.46c3.71,9.81,0,21.2-7.3,28.37a1.82,1.82,0,0,0-.36.54l-.15.11a32.34,32.34,0,0,1-8.21,4.25,34.23,34.23,0,0,1-8.76,2c-.58,0-1.15,0-1.73,0-3-1.88-7-2.63-10.13-4.21C245.26-64.81,241.79-67.07,239.65-70.47Zm290.06,148q-.06,31.29-2.05,62.51c-1.35,20.9-3.16,102.89-4,123.82-.46,11.66-.63,23.32-.31,35,.07,2.23.22,9.2.25,11.48a1.68,1.68,0,0,0-.51.52c-1.21,1.9-.67,4.66-1.61,6.77a14.54,14.54,0,0,1-4.28,5.48c-4.83,3.66-11.66,3.93-17.45,4.22-1.47.08-7.38.14-12.75.2-10.72-.1-21.4-1.3-32.09-2C409.68,322.66,364.33,324,319,324q-19.12,0-38.24-.32c-9.84-.16-24.05.33-33.83-1.84a3.59,3.59,0,0,0-1.82-.77c-8.83-1.21-8.49-17-8.28-23.7q.48-16.1,1-32.2c.68-21.63,1.52-104.36,2.09-126a283.07,283.07,0,0,0-.54-31.91C238.5,96.83,236.46,86.5,235.8,76c-.67-10.76.62-21.47,1.07-32.2a220.41,220.41,0,0,0-.94-31.36c-.1-1-.21-2-.33-3.05l.09-4.91c.11-6.15.34-12.31.29-18.46,0-5.48-.2-11-.06-16.44l0-.87a3.85,3.85,0,0,1,.49-1.08,13.61,13.61,0,0,1,3.16-7.57,8.61,8.61,0,0,1,9.19-5.79c3.43.29,6.48,1.9,9.78,2.66,2.62-.3,5.25-.53,7.88-.6.55,0,1.1,0,1.65,0,9.07-1.76,17.06-5.17,26.57-1.36,4.73,1.89,9.13,4.78,14.07,6.12,6,1.61,12.5,1.72,18.64,2,11.13.47,22.26.12,33.39.45,11.34.35,22.66,1.2,34,1.71q34.62,1.56,69.3,1.91c10.7.11,21.36.18,32.05-.41,7.93-.43,17.44-1.17,24.19,3.82a16.44,16.44,0,0,1,5.82,7.84,1.34,1.34,0,0,0,.2,0,44.87,44.87,0,0,1,2.55,10.06c1.19,8.45.67,17.22.7,25.72C529.65,35.34,529.76,56.46,529.71,77.57Z" transform="translate(-221.14 124.57)"/><path class="cls-4" d="M542.81,100.52c-.22-38.47-.88-75.9-.88-114.37-.82-5.42-2.67-10.68-4-16a2.37,2.37,0,0,1-1.21-1.58c-1.61-6.26-5.38-10.56-11-13.55-1-.56-2.12-1.07-3.2-1.55-.35-.2-.69-.39-1-.55a22,22,0,0,0-4.57-1.79c-1.46-.58-2.91-1.17-4.35-1.81-15.48-.45-24.24-1.83-39.71-1.91h0c-35.56-.13-71.13-.75-106.69-1.13q-14.83-.16-29.66-.19c-5.15,0-10.27.1-15.39.26,0,0,0,0,0,0a62.49,62.49,0,0,1-15,.26l-.12-.17c-.81-1-1.95-1.38-2.94-2.18a10.36,10.36,0,0,1-2.29-2.69A14.13,14.13,0,0,1,299-63.77c0-.19,0-.37,0-.56-.08-3.25.37-6.55.27-9.79a78.86,78.86,0,0,0,.61-8c0-.14,0-.29,0-.43a.28.28,0,0,0,0-.18c0-.14,0-.29,0-.44a58.91,58.91,0,0,0-1.07-20.11,47.19,47.19,0,0,0-10.88-14.59,26.93,26.93,0,0,0-7.05-4.44c-13.51-4.71-29.61-1.92-41.28,6.92l-.14.12a14,14,0,0,0-2.72,3.65,75.56,75.56,0,0,0-6.44,9.51v0c-.67,1.52-1.1,3.08-1.86,5.09a38.14,38.14,0,0,0-1.89,6.49,2.89,2.89,0,0,1-.06,1c-.14.59-.25,1.19-.34,1.78a30.89,30.89,0,0,0-.14,3.25,1.45,1.45,0,0,0-.22.33c-.07,1.12-.12,2.25-.19,3.39,0,.73-.12,1.46-.21,2.19,0,1,0,2-.05,3s.21,2.16.28,3.21q.27,4.55.45,9.11t.35,9.14c0,.81,0,1.6,0,2.36q-.18,4.32-.12,8.64c.06,4.68-3.23,9.34-2.7,14l-.12,7.07c-.38,22.7-.67,45.4-1.05,68.1-.78,45.4,3,90.8,2.33,136.2-.35,22.07-.82,109.94-1.25,132,.42,3.62,1,7.23,2.74,10.36,2.34,4.21,7,6.19,11.09,8.7,1.52.23,3.05.4,4.57.55,6.2.61,12.42.88,18.63,1.24,12.4.73,28.47,1.13,40.89,1.62,24.77,1,45.39-.23,70.17.68,49.5,1.83,25.12,3.07,74.65,3.64,13.87.16,41.82.21,55.69.09q8.61-.09,17.22-.25c6.27-.77,12.05-3.08,16-8.06,2.78-11.44,3.61-28.25,4.43-39.61C542.78,247.86,543.06,145.92,542.81,100.52ZM312-49.3a1.64,1.64,0,0,0,1.24-1.32c6.53.41,13.05.8,19.6.94,8.85.19,17.7.37,26.55.47l53.09.61,53.08.6c17.85.21-17.85-.14,0,0,9.88.08,7.26,1,17.13,1,7.66,0,21.56,2.23,29.21,2a11,11,0,0,1,1.83,2,7.88,7.88,0,0,1,.4.76h-.21c-1.13,0-2.24,0-3.35-.16l-.36.1c-.13,0-.26.1-.38.15-6.33-.25-26.73-.4-33.07-.45-20.22-.17-40.44-.36-60.66.17-40.91,1.07-7.95-.87-48.85-2.25-11.57-.39-23.13-.94-34.69-1.45-.85,0-1.69-.08-2.54-.12A39.63,39.63,0,0,1,311.21-48c-.3-.1-.6-.22-.9-.34A5.69,5.69,0,0,1,312-49.3Zm-63.38-66,.28-.19a1.68,1.68,0,0,0,.79-1.08q2.25-1,4.55-1.88l1.4-.52.51-.11c2.27-.44,6.16-.46,8.8-1.62a75.91,75.91,0,0,1,8.14.11c.21.06.42.12.63.2.94.32,1.83.77,2.74,1.17a44.9,44.9,0,0,1,10.67,7.74,31.45,31.45,0,0,1,5.28,6.61,23.54,23.54,0,0,1,1.75,3.83c.09,2.66.29,5.31.63,8,.29,2.24.56,4.49.9,6.73a25.43,25.43,0,0,0,.6,3.51c-.47,1-.92,2-1.32,3-.95-9.66.06-20.31-6.21-28.36a24,24,0,0,0-12-7.85.46.46,0,0,0-.07-.07c-3.74-3.25-10.12-2.11-14.65-1.75-4.25.34-8.67.85-12.53,2.74-.53.18-1.06.37-1.58.58A2.48,2.48,0,0,1,248.59-115.29ZM231.46-75.76c-1.19-4-.59-8.52.16-12.66a79.15,79.15,0,0,1,1.9-8,13.63,13.63,0,0,1,1.07-2.76,1.91,1.91,0,0,1,.25-.87l.67-.94a36.74,36.74,0,0,1,9.4-9.21l1.05-.38a3.09,3.09,0,0,1,.5-.33c.54-.26,1.08-.52,1.64-.77,1.82-.63,3.65-1.2,5.5-1.73l1.48-.44a54.88,54.88,0,0,1,6.48-.76,64.73,64.73,0,0,1,6.53-.19,22.56,22.56,0,0,1,5.76,1.27,16.49,16.49,0,0,1,8,6.69c2.91,3.17,5,6,6.22,10.13a37,37,0,0,1,1.26,7.67c-.09,3.54.2,7.15-.16,10.67-.23,2.21.42,4.38-.05,6.53-.13.25-.24.51-.37.76-.66,1.25-1.32,2.5-2,3.71-1.78,1.76-2.75,3.67-4.84,5.18l-.79.57a23,23,0,0,1-8.79,5.46C260.53-52,246-52.84,237.25-62.68A25.1,25.1,0,0,1,231.46-75.76ZM229.6,327.52a2.23,2.23,0,0,0,.26-.27l.34.38ZM535.14,52.19c0,2.76-.1,5.53-.15,8.29-.88,4.15-1.88,10-.51,14.22-.2,4.8,0,9.66,0,14.37,0,9,.08,18,.06,27s.1,18-.1,27.05c-.2,8.3-.56,16.6-.82,24.9a1.73,1.73,0,0,0-.33,1c-.3,11.28-.3,81,0,92.28A216.37,216.37,0,0,1,532,292.62a1.87,1.87,0,0,0-.22.78c-.23,4.09-.51,12.87-.76,17a55.81,55.81,0,0,1-4,16.55c-.13.18-.27.35-.41.52a58.92,58.92,0,0,1-5.8,3.11c-1.27.62-2.47,1.19-3.67,1.66l-2.27,0c-6.06.08-26.21.14-32.28.18q-17.69.09-35.37,0c-23.93-.19,26,0,2.11-.65-47.62-1.35-91.06-1-138.66-2.63-13.44-.45-30.55-1-44-1.22q-9.83-.17-19.65-.24l-1.47,0a3.17,3.17,0,0,0-.92-.55V327c-.85-.13-1.66-.26-2.44-.4-4-1-7.09-4-9.11-7.53a10.65,10.65,0,0,1-1.29-5.16,2.62,2.62,0,0,1-.61-1.51,12.94,12.94,0,0,1,0-2.06,68,68,0,0,1,0-14c.65-37.45,1.3-136,1.74-173.47.53-45.4-3.57-90.8-3.74-136.2,0-10.08,3.51-20.17,3.42-30.25A3.13,3.13,0,0,0,232.9-45c0-1.2,0-2.39,0-3.59.15-.88.33-1.78.54-2.65a16.46,16.46,0,0,1,1.11-2.14,7,7,0,0,1,2.29-2.29,1.74,1.74,0,0,0,.83.59c1.08.39,2.17.74,3.26,1.08a38.34,38.34,0,0,0,10.37,5.63,42.55,42.55,0,0,1,6,1.13,23.53,23.53,0,0,0,8.85.29,63.39,63.39,0,0,0,8.68-1.57c2.63-.73,5.05-2,7.67-2.79a11,11,0,0,1,9,1.4l.15.05.82.39c5.27,1,9.37,4.33,14.08,6.51a49.61,49.61,0,0,0,7.38,2.08c2.76-.08,5,.14,7.71,0a22.38,22.38,0,0,1,2.55.12q13.49.85,27,1.44,30.56,1.3,61.14,1.69c40.81.5,7.69,1.86,48.49,1.63h7.75a2.36,2.36,0,0,1,1.19-.18l2.58.2h1.85c.2.07.42.11.63.17l.51,0a2.4,2.4,0,0,1,1.32-.41c1.87,0,3.74-.11,5.6-.22,2.72-.32,19.54-.48,22.25-.5,2-.08,3.93-.1,5.91,0,4.73.26,11.38,1.06,14.56,5l.62.37a16.26,16.26,0,0,1,4.26,3.8,12.16,12.16,0,0,1,1.4,2.51c2.5,9.89,2.91,20,3.12,30.21.12,6.16.25,11.28.37,17.45s-.23,12.78.49,19a2.57,2.57,0,0,0,.08.4C535.25,45.32,535.2,48.75,535.14,52.19Z" transform="translate(-221.14 124.57)"/></svg>