<svg id="Слой_1" data-name="Слой 1" xmlns="http://www.w3.org/2000/svg" viewBox="0 0 575.65 404.7"><defs><style>.cls-1{fill:#536569;}.cls-2{fill:#7a8d90;}.cls-3{fill:#414f51;}</style></defs><title>zejen</title><path class="cls-1" d="M343.48,196.7c.08.29.16.36,0,0Z" transform="translate(223.21 15.92)"/><path class="cls-1" d="M345.48,318.18c-.39-9.47-1.68-21.63-1.92-31.11q-.68-27.93-.49-55.86.1-14.24.43-28.45c0-1,.09-2.07.08-3.1,0-.17,0-.34,0-.52q-.93-5.94-.34-2.88c.1.19.17.33.22.44a2.42,2.42,0,0,1-.07-.66c.11-2.4-.06-4.84-.08-7.24q-.06-7-.06-14,0-5.44,0-10.89a11.66,11.66,0,0,0,.75-3.78q.66-24.42,1-48.84a10.62,10.62,0,0,0-2.77-7.11,59.41,59.41,0,0,0,1.57-11.06A25.18,25.18,0,0,0,334,72.09c-5.38-4.15-11.25-5.8-18.05-5.94-6.25-.13-26.58,0-32.83,0-12.33,0-24.65-.92-37-.92-12.51,0,48.88-1.88,36.38-1.88l-74.49,0c-13.9,0-281.5,2.64-295.4,2.84-11,.17-22.13.52-33.13-.62a72.53,72.53,0,0,1-12.08-3.08c-3.66-1.91-7-4.37-10.69-6.12a50.73,50.73,0,0,0-7.17-2.82,144.11,144.11,0,0,1-5-19c-.61-7.61-1.08-15.21-1-22.85.08-11.09-8.53-20.4-19.28-21.84a25.43,25.43,0,0,0-6.17-.08l-.31-.18a71.74,71.74,0,0,0-13.43,2.51,2.47,2.47,0,0,1-1.78-.16,19.89,19.89,0,0,0-3.48,3,2.28,2.28,0,0,1-3,.44c-3.27,6.43-8,11.93-11.3,18.35-3.21,6.26-2.88,12.56-2.26,19.08a5.17,5.17,0,0,1,1.31,2.9c1,7.82,1.53,16.32,0,24.29a4.4,4.4,0,0,1,1.15,6.2c-5.12,8-4,19.53-2.61,28.44a5.43,5.43,0,0,1-4.44,6.16,283.25,283.25,0,0,0-.6,44.67c.69,11.48,1.63,23,2.21,34.45q-.51,7.28-.92,14.56c3-.74,6.34.77,5.87,4.58-1.41,11.64-.89,23.35-1.49,35-.57,11.18-1.78,22.27-2.07,33.49q-.18,6.9-.51,13.77a4.54,4.54,0,0,1,1.56,5c-2,7.36-1,15.35-1.65,22.9-.76,9-.28,18.09-.89,27.12a4.76,4.76,0,0,1-.16.93c.08,24.11.9-12,.33-.21-.42,8.65-1.49,22,3.37,29.74,4.28,6.83,11.86,11.37,19.73,12.7,6.9,1.16,17.26,1.13,24.22,1.16l21.77.1c15.88.07,31.82-.26,47.68.38a14.18,14.18,0,0,0,1.46,0,167.54,167.54,0,0,0,26.4,4.84,59.57,59.57,0,0,0,11.86.38c5.64-.47,11.27-1.27,16.85-2.23,1.15-.2,256-3.16,257.08-3.65,31.73-.31-10.43-1,21.33-1.24a72.65,72.65,0,0,0,11.09,1,46.54,46.54,0,0,0,8.6-.75c10.51.35,21,1.11,31.46,2.42l1.18.15-.75-.1h0l.75.1c3.27.39,20.33.42,23.34-.69a30.7,30.7,0,0,0,9,1.86c7.62.43,16.53-2.56,20.05-9.78a17.58,17.58,0,0,0,.76-1.82c6.22-6.21,8.86-19.41,9.42-28.4C346.81,334.89,345.82,326.45,345.48,318.18Z" transform="translate(223.21 15.92)"/><path class="cls-1" d="M285,382.16l-1.23-.17h0Z" transform="translate(223.21 15.92)"/><path class="cls-2" d="M347.7,125.48c-.15-10.74.33-21.71-1.56-32.33a33.15,33.15,0,0,0-4.4-12.24c-.45-.7-.95-1.45-1.49-2.17a4.76,4.76,0,0,0-1.15-2.11c-7.67-8.29-4.55-17.14-15.2-17.22-13.68-.11-33.8-4-47.48-4-28.09.06,5.78-.14-22.3,0-13.77.07-18.77-.64-32.54-.6C221,54.58-47.85,58.07-48.5,58c-20.24-1-34.31,1-54.55,0-1.7-.08-7.79-.12-8.49.95-4-.71-10.14-.61-14.13-1.55-7.74-2.54-19.15.9-26.21-3.16a4.41,4.41,0,0,0-2.89-.55,12.55,12.55,0,0,0-5.66-3,30.66,30.66,0,0,0,2.52-2.46,39.36,39.36,0,0,0,7.83-13c-.45-1.8,3.59-2.92,3.53-4.7-.08-2.37,0-3.71,0-6.08,0-1.17,0-3,0-4.23-.33-.39,0-3.08,0-3.72-.15-2.81.09-5-1.54-7.08s-.71-3.92-1.9-6.21c-.53-1-2-2.31-2.61-3.23a13.65,13.65,0,0,1-1.11-2.85A11.88,11.88,0,0,0-157.46-7c-1-.59-3.39-1.44-4.33-2,0,0-.86-1.91-.87-1.92-1.88-.17-3.3-1.22-5.17-1.13-3.72.16-5-1.83-8.77-1.78-2.4.46-3.53-.59-5.9,0-.68.18-9.66,2.94-10.16,2.69-1.22.83-4.67,7.34-5.77,8.51a2.39,2.39,0,0,1-3.64-.09,52.74,52.74,0,0,0-4.88,4,25.33,25.33,0,0,0-4.66,5.69,24.38,24.38,0,0,0-3.19,6.37c-2.32,6.92-2.71,15.21-2.16,22.45a21,21,0,0,0,8.63,15.8,24.18,24.18,0,0,0,4,2.29,12.17,12.17,0,0,0-1.55.4,2,2,0,0,0-3.49-.38,18.85,18.85,0,0,0-1.41,2.85,9.34,9.34,0,0,0-1.81,4,7.54,7.54,0,0,0-.41,3.19c-.23,2.88-4,5.78-4.15,8.69a69.76,69.76,0,0,0-1.41,7.56c-1.41,10.48-.17,21,.93,31.51.17,1.64.33,3.29.49,4.93-.05,1.43-.09,2.85-.11,4.28-.06,3.39-.37,6.53,1.08,9.66.21,4.63.3,9.26.23,13.9-.17,11.25-1.72,22.43-1.76,33.68,0,11,2,21.88,3.2,32.8a246.16,246.16,0,0,1,1,33.37c-.56,22.65-.44,48-1.16,70.64-.39,12.4-1.21,29.56-1.12,42,.06,8.32,2.79,17.1,9.65,21.18a20.19,20.19,0,0,0,11.84,6.28,4.47,4.47,0,0,0,5-3.27c5.94.69,15.62.87,21.56,1.13,11.54.52,23.08.78,34.63.84,23.26.13,46.53-.2,69.8-.23,23.07,0,299.88-2.36,322.92-1,5.45.31,10.9.76,16.35,1.18h1.31c1.68.07,3.36.16,5,.31a1,1,0,0,1,.05.16c3.82.27,7.63.5,11.45.62,4.29.14-2.1.3-11,.37a3.21,3.21,0,0,0,3.12,1.75c3.54-.23,21.15-.57,24.67-1a47,47,0,0,0,9.33.38,24.38,24.38,0,0,0,13.43-5.11c5.34-3.15,8.68-9.72,9.48-15.86.67-5.1.23-14.94.12-20.06-.13-5.49-.14-11-.07-16.46.28-22.14,1-46.92,2.5-69,1.55-22.34,2.7-44.67,2.89-67.07C348.51,169.77,348,147.63,347.7,125.48ZM-204.7,38.19c-2.71-4.32-2.86-9.61-2.83-14.57,0-4.76.54-9.77,3.46-13.72a27.62,27.62,0,0,1,6.52-6.08,3.7,3.7,0,0,0,2.69-1.75c.65-.4,1.31-.79,2-1.16,1-.57,2-1.1,3.06-1.58.86-.11,1.73-.15,2.55-.18a61.43,61.43,0,0,1,13.69.59,23.65,23.65,0,0,1,8.41,3.33,43.65,43.65,0,0,1,6.27,11.46c3.72,9.81,0,21.19-7.29,28.37a1.7,1.7,0,0,0-.37.53l-.15.12a32,32,0,0,1-8.21,4.24,33.81,33.81,0,0,1-8.76,2c-.58,0-1.15.05-1.73.06-3-1.88-7-2.64-10.13-4.22C-199.09,43.84-202.56,41.59-204.7,38.19ZM339.08,183.62Q339,214.93,337,246.14c-1.35,20.9-2.09,44.46-2.91,65.4-.46,11.65-.64,23.31-.31,35,.06,2.23.22,9.2.24,11.49a1.55,1.55,0,0,0-.51.51c-1.2,1.9-.67,4.66-1.61,6.77a14.45,14.45,0,0,1-4.28,5.48c-4.83,3.66-11.65,3.93-17.45,4.22-1.47.08-7.38.14-12.74.2-10.72-.1-21.41-1.3-32.1-2-45.24-2.9-344.31,1.06-389.61,1q-19.11,0-38.24-.32c-9.84-.16-24,.33-33.82-1.84a3.59,3.59,0,0,0-1.82-.77c-8.84-1.21-8.49-17-8.29-23.7q.48-16.1,1-32.2c.68-21.63.45-45.93,1-67.56a282.94,282.94,0,0,0-.54-31.9c-.91-10.45-2.95-20.78-3.61-31.26-.67-10.75.62-21.46,1.07-32.2a219,219,0,0,0-.94-31.36c-.1-1-.21-2-.33-3.05l.09-4.91c.11-6.15.34-12.3.29-18.45,0-5.48-.2-11-.06-16.45l0-.86a3.67,3.67,0,0,1,.5-1.09,13.56,13.56,0,0,1,3.15-7.57A8.59,8.59,0,0,1-195.56,63c3.44.29,6.48,1.9,9.78,2.65,2.62-.3,5.25-.53,7.88-.59.55,0,1.1,0,1.65,0,9.07-1.76,17.07-5.17,26.57-1.36,4.73,1.89,9.13,4.79,14.07,6.12,6,1.61,12.5,1.72,18.64,2,11.13.47,22.27.12,33.39.46,11.34.34,22.67,1.19,34,1.71,23.08,1,299.91-.93,323-.69,10.71.1,21.36.17,32.05-.41,7.93-.44,17.44-1.17,24.2,3.81a16.53,16.53,0,0,1,5.81,7.84l.2,0a44.65,44.65,0,0,1,2.55,10c1.2,8.45.67,17.22.7,25.72C339,141.4,339.13,162.51,339.08,183.62Z" transform="translate(223.21 15.92)"/><path class="cls-3" d="M352.18,206.57c-.22-38.47-.87-75.9-.87-114.37-.83-5.42-2.68-10.68-4.05-16a2.37,2.37,0,0,1-1.21-1.58c-1.61-6.26-5.38-10.56-11-13.55-1-.55-2.12-1.06-3.2-1.55l-1-.55a21.23,21.23,0,0,0-4.57-1.78c-1.46-.59-2.91-1.18-4.35-1.81-15.47-.46-24.24-1.84-39.71-1.91-17.67-.09,17.67.06,0,0-35.56-.14-324.85,1.84-360.4,1.46q-14.84-.15-29.67-.18c-5.14,0-10.27.1-15.39.25,0,0,0,0,0,0a62,62,0,0,1-15,.26l-.12-.17c-.81-1-2-1.38-2.94-2.17a10.4,10.4,0,0,1-2.29-2.7,14.07,14.07,0,0,1-1.82-5.28c0-.18,0-.37,0-.56-.08-3.25.37-6.55.27-9.78a79.08,79.08,0,0,0,.61-8c0-.15,0-.29,0-.43a.35.35,0,0,0,0-.18c0-.15,0-.3,0-.45a59.1,59.1,0,0,0-1.06-20.1A47.3,47.3,0,0,0-156.5-9.22a26.88,26.88,0,0,0-7.05-4.43c-13.51-4.71-29.61-1.93-41.28,6.92l-.14.12A13.87,13.87,0,0,0-207.68-3a75.4,75.4,0,0,0-6.45,9.52v0c-.67,1.51-1.1,3.07-1.86,5.09a38,38,0,0,0-1.89,6.48,2.71,2.71,0,0,1-.06,1c-.14.59-.24,1.18-.34,1.77-.09,1-.14,2.12-.14,3.26a1.11,1.11,0,0,0-.22.33c-.07,1.12-.12,2.25-.19,3.39,0,.72-.12,1.46-.2,2.19,0,1,0,2-.06,3s.21,2.15.28,3.2c.18,3,.34,6.08.46,9.12s.24,6.09.34,9.14c0,.8,0,1.6,0,2.35-.12,2.88-.16,5.77-.12,8.65.06,4.68-3.23,9.33-2.7,14,0,2.36-.07,4.72-.11,7.08-.39,22.7-.68,45.4-1.06,68.1-.77,45.39,3,90.8,2.33,136.19-.35,22.08.25,51.52-.17,73.6.42,3.62,1,7.23,2.73,10.36,2.34,4.21,7,6.19,11.1,8.7,1.51.23,3,.4,4.57.55,6.19.61,12.41.88,18.62,1.24,12.4.73,28.47,1.13,40.89,1.62,24.78,1,45.39-.23,70.17.69,49.5,1.82,278.84.46,328.38,1,13.87.16,41.81.21,55.68.09q8.61-.09,17.22-.25c6.27-.77,12-3.08,16-8.06,2.77-11.44,3.6-28.25,4.43-39.61C353.22,295.49,352.43,252,352.18,206.57ZM-132.38,59.35A1.61,1.61,0,0,0-131.14,58c6.53.41,13,.81,19.6.95,8.85.18,17.7.36,26.55.46,17.7.2,289.11-2.19,306.81-2l53.08.61c17.85.2-17.84-.15,0,0,9.88.08,7.26.95,17.14,1,7.65,0,21.55,2.23,29.2,2a10.39,10.39,0,0,1,1.83,2,6.72,6.72,0,0,1,.4.75h-.2c-1.14,0-2.25,0-3.36-.15l-.36.1a2.5,2.5,0,0,0-.38.15c-6.33-.26-26.73-.4-33.07-.46-20.22-.16-40.44-.35-60.66.17C184.53,64.73-36.23,65.4-77.13,64c-11.57-.39-23.13-.94-34.69-1.44l-2.54-.13a39.5,39.5,0,0,1-18.78-1.8l-.9-.34A6,6,0,0,1-132.38,59.35Zm-63.38-66,.28-.19a1.67,1.67,0,0,0,.79-1.08c1.5-.69,3-1.31,4.55-1.88l1.4-.52.52-.11c2.27-.45,6.15-.47,8.79-1.62a73.42,73.42,0,0,1,8.14.1l.63.2c.94.33,1.84.77,2.74,1.17a45.52,45.52,0,0,1,10.68,7.74A32,32,0,0,1-152,3.79a24,24,0,0,1,1.75,3.84c.09,2.66.29,5.31.63,8,.29,2.25.56,4.5.91,6.73a24.94,24.94,0,0,0,.59,3.51c-.47,1-.92,2-1.32,3-1-9.66.07-20.31-6.21-28.35a23.85,23.85,0,0,0-12-7.85.23.23,0,0,0-.07-.07c-3.74-3.26-10.12-2.12-14.65-1.76-4.25.34-8.67.86-12.53,2.74l-1.58.58A2.44,2.44,0,0,1-195.76-6.63ZM-212.88,32.9c-1.2-4-.6-8.53.15-12.66a78.52,78.52,0,0,1,1.9-8,13.41,13.41,0,0,1,1.07-2.76,2.08,2.08,0,0,1,.25-.88l.67-.93a36.74,36.74,0,0,1,9.4-9.21c.35-.14.7-.26,1.05-.39a3.06,3.06,0,0,1,.5-.32c.54-.27,1.08-.53,1.64-.78,1.82-.63,3.66-1.2,5.5-1.72l1.48-.44A53.09,53.09,0,0,1-182.79-6a64.72,64.72,0,0,1,6.53-.18,21.75,21.75,0,0,1,5.76,1.27,16.47,16.47,0,0,1,8,6.68c2.92,3.18,5,6,6.22,10.13A37.21,37.21,0,0,1-155,19.59c-.09,3.55.2,7.16-.16,10.68-.23,2.2.42,4.37,0,6.52-.12.26-.24.52-.37.76-.66,1.26-1.32,2.5-2,3.71-1.78,1.77-2.75,3.67-4.83,5.19l-.79.57a23.07,23.07,0,0,1-8.8,5.45c-11.77,4.21-26.31,3.34-35-6.5A25.05,25.05,0,0,1-212.88,32.9Zm-.79,344.85a2.16,2.16,0,0,0,.25-.27l.35.39ZM344.52,158.24c0,2.77-.11,5.53-.16,8.3-.88,4.15-1.88,9.94-.51,14.22-.2,4.8,0,9.65,0,14.36,0,9,.08,18,.06,27s.1,18-.11,27c-.2,8.3-.56,16.6-.82,24.9a1.76,1.76,0,0,0-.33,1c-.3,11.29.78,22.58,1.07,33.86a216.57,216.57,0,0,1-1.33,31.29,1.69,1.69,0,0,0-.21.77c-.24,4.09-.51,12.87-.77,17a55.51,55.51,0,0,1-4,16.55c-.13.18-.27.35-.41.52a58.77,58.77,0,0,1-5.79,3.11c-1.28.62-2.48,1.19-3.68,1.66l-2.26,0c-6.07.09-26.21.14-32.28.18q-17.69.09-35.37,0c-23.94-.19,26,0,2.1-.65C212.1,378-85,381-132.66,379.34c-13.44-.45-30.55-1-44-1.22q-9.82-.17-19.66-.24l-1.47,0a3.17,3.17,0,0,0-.92-.55l0-.1c-.85-.13-1.66-.26-2.45-.4-4-1-7.09-4-9.1-7.53a10.66,10.66,0,0,1-1.3-5.16,2.62,2.62,0,0,1-.61-1.51,12.94,12.94,0,0,1,0-2.06,68.67,68.67,0,0,1,0-14c.66-37.45.23-77.59.67-115,.53-45.4-3.57-90.79-3.74-136.19,0-10.09,3.51-20.17,3.42-30.26a3.1,3.1,0,0,0,.34-1.52c0-1.19,0-2.39,0-3.58.15-.89.33-1.79.54-2.66a18.59,18.59,0,0,1,1.11-2.14,7.15,7.15,0,0,1,2.29-2.29,1.74,1.74,0,0,0,.84.6c1.07.39,2.16.74,3.25,1.07A38.37,38.37,0,0,0-193,60.24a39.86,39.86,0,0,1,6,1.13,23.37,23.37,0,0,0,8.86.28,63.5,63.5,0,0,0,8.67-1.56c2.63-.73,5.06-2,7.67-2.79a10.91,10.91,0,0,1,9,1.4l.15,0c.28.12.55.25.82.39,5.27,1,9.37,4.32,14.08,6.5a48.76,48.76,0,0,0,7.38,2.08c2.76-.07,5,.15,7.71,0a22.57,22.57,0,0,1,2.56.13q13.47.84,27,1.44c20.37.87,294.47-1.17,314.86-.92,40.81.5,7.69,1.87,48.5,1.64q3.87,0,7.74,0a2.48,2.48,0,0,1,1.19-.17l2.58.2h1.85l.63.16.52,0a2.34,2.34,0,0,1,1.31-.4c1.87,0,3.74-.11,5.6-.23,2.72-.32,19.55-.48,22.25-.5,2-.07,3.93-.09,5.91,0,4.74.26,11.38,1.06,14.56,5l.62.37a16.4,16.4,0,0,1,4.26,3.79,12.76,12.76,0,0,1,1.41,2.52c2.49,9.89,2.9,20,3.11,30.21.13,6.16.25,11.28.38,17.44s-.24,12.78.48,19c0,.15.05.28.08.41C344.62,151.37,344.57,154.81,344.52,158.24Z" transform="translate(223.21 15.92)"/></svg>