<svg id="Слой_1" data-name="Слой 1" xmlns="http://www.w3.org/2000/svg" viewBox="0 0 575.65 404.7"><defs><style>.cls-1{fill:#45af69;}.cls-2{fill:#a7d2af;}.cls-3{fill:#168c46;}</style></defs><title>slaud</title><path class="cls-1" d="M553.89,148.11c.08.29.16.36,0,0Z" transform="translate(12.8 64.51)"/><path class="cls-1" d="M555.89,269.6c-.38-9.48-1.68-21.64-1.91-31.12q-.69-27.93-.5-55.86.1-14.24.43-28.45c0-1,.09-2.07.08-3.1,0-.17,0-.34,0-.52q-.93-5.94-.34-2.88c.1.19.17.33.22.44a2.42,2.42,0,0,1-.07-.66c.11-2.4-.05-4.84-.08-7.24q-.06-7-.06-14,0-5.45,0-10.89a11.66,11.66,0,0,0,.75-3.78q.66-24.42,1-48.84a10.62,10.62,0,0,0-2.77-7.11,59.41,59.41,0,0,0,1.57-11.06,25.18,25.18,0,0,0-9.75-21.08c-5.38-4.15-11.25-5.8-18.05-5.94-6.25-.13-26.58,0-32.83,0-12.33,0-24.65-.92-37-.92-12.51,0,48.88-1.88,36.38-1.88l-74.49,0c-13.9,0-281.5,2.64-295.39,2.84-11,.17-22.14.52-33.14-.62a72.53,72.53,0,0,1-12.08-3.08c-3.66-1.91-7-4.37-10.69-6.12A50.73,50.73,0,0,0,60,4.9a144.11,144.11,0,0,1-5-19c-.61-7.61-1.08-15.21-1-22.85C54-48,45.42-57.33,34.67-58.77a25.43,25.43,0,0,0-6.17-.08L28.19-59a71.74,71.74,0,0,0-13.43,2.51A2.47,2.47,0,0,1,13-56.68a19.89,19.89,0,0,0-3.48,3,2.28,2.28,0,0,1-3,.44c-3.27,6.43-8,11.93-11.3,18.35C-8-28.67-7.66-22.36-7-15.85a5.17,5.17,0,0,1,1.31,2.9c1,7.82,1.53,16.32,0,24.29a4.4,4.4,0,0,1,1.15,6.2c-5.12,8-4,19.53-2.61,28.44a5.42,5.42,0,0,1-4.44,6.16,284.45,284.45,0,0,0-.6,44.67c.69,11.48,1.63,23,2.21,34.45q-.51,7.28-.92,14.56c3-.74,6.34.77,5.88,4.58-1.42,11.64-.9,23.35-1.49,35-.58,11.18-1.79,22.27-2.08,33.49q-.18,6.9-.51,13.77a4.54,4.54,0,0,1,1.56,5c-2,7.36-1,15.35-1.65,22.9-.76,9-.28,18.09-.89,27.12a4.76,4.76,0,0,1-.16.93c.08,24.11.91-12,.33-.21-.42,8.65-1.49,22,3.37,29.74,4.28,6.83,11.86,11.37,19.74,12.7C20.08,332,30.44,332,37.4,332l21.77.1c15.88.07,31.82-.26,47.68.38a14.18,14.18,0,0,0,1.46,0,167.54,167.54,0,0,0,26.4,4.84,59.57,59.57,0,0,0,11.86.38c5.64-.47,11.27-1.27,16.85-2.23,1.16-.2,256-3.16,257.09-3.65,31.72-.31-10.44-1,21.32-1.24a72.65,72.65,0,0,0,11.09,1,46.46,46.46,0,0,0,8.6-.75c10.51.35,21,1.11,31.46,2.42l1.18.15-.75-.1h0l.75.1c3.27.39,20.33.42,23.34-.69a30.7,30.7,0,0,0,9,1.86c7.62.43,16.53-2.56,20-9.78a17.58,17.58,0,0,0,.76-1.82c6.22-6.21,8.86-19.41,9.42-28.4C557.22,286.3,556.23,277.86,555.89,269.6Z" transform="translate(12.8 64.51)"/><path class="cls-1" d="M495.39,333.57l-1.23-.17h0Z" transform="translate(12.8 64.51)"/><path class="cls-2" d="M486.45,334.32c-2.78,0-5.56,0-8.33-.07-4.64.13-9.29.46-14,.91-7,.68,14.5.75,29.13.62a4.56,4.56,0,0,1-.4-1C490.73,334.64,488.59,334.49,486.45,334.32Z" transform="translate(12.8 64.51)"/><path class="cls-2" d="M558.11,76.89c-.15-10.74.33-21.71-1.56-32.33a33.15,33.15,0,0,0-4.4-12.24c-.45-.7-.95-1.45-1.49-2.17A4.76,4.76,0,0,0,549.51,28c-7.67-8.29-4.55-17.14-15.2-17.22-13.68-.11-33.8-4-47.48-4-28.09.06,5.78-.14-22.3,0-13.77.07-18.77-.64-32.54-.6-.57-.25-269.43,3.24-270.08,3.2-20.23-1-34.31,1-54.55,0-1.7-.08-7.79-.12-8.48,1-4-.71-10.15-.61-14.14-1.55C77,6.3,65.59,9.74,58.53,5.68a4.41,4.41,0,0,0-2.89-.55,12.55,12.55,0,0,0-5.66-3A30.66,30.66,0,0,0,52.5-.38a39.36,39.36,0,0,0,7.83-13c-.45-1.8,3.59-2.92,3.53-4.7-.08-2.37,0-3.71,0-6.08,0-1.17,0-3,0-4.23-.33-.39,0-3.08,0-3.72-.14-2.81.09-5-1.54-7.08s-.71-3.92-1.9-6.21c-.53-1-2.05-2.31-2.61-3.23a13.65,13.65,0,0,1-1.11-2.85A11.88,11.88,0,0,0,53-55.58c-1-.59-3.39-1.44-4.33-2.05,0,0-.85-1.91-.87-1.92-1.88-.17-3.3-1.22-5.17-1.13-3.72.16-5-1.83-8.77-1.78-2.4.46-3.53-.59-5.89,0-.69.18-9.67,2.94-10.17,2.69-1.22.83-4.67,7.34-5.76,8.51a2.4,2.4,0,0,1-3.65-.09,52.74,52.74,0,0,0-4.88,4A25.33,25.33,0,0,0-1.2-41.66a24,24,0,0,0-3.18,6.37C-6.71-28.37-7.1-20.08-6.55-12.84A20.93,20.93,0,0,0,2.09,3a23.38,23.38,0,0,0,4,2.29,11.89,11.89,0,0,0-1.56.4,2,2,0,0,0-3.49-.38A18.85,18.85,0,0,0-.36,8.12a9.34,9.34,0,0,0-1.81,4,7.54,7.54,0,0,0-.41,3.19c-.23,2.88-4,5.78-4.15,8.69a69.76,69.76,0,0,0-1.41,7.56C-9.55,42-8.31,52.57-7.21,63c.17,1.64.33,3.29.49,4.93,0,1.43-.09,2.85-.11,4.28-.06,3.39-.37,6.53,1.08,9.66.21,4.63.3,9.26.23,13.9-.17,11.25-1.72,22.43-1.76,33.68,0,11,2,21.88,3.2,32.8a244.54,244.54,0,0,1,1,33.37c-.56,22.65-.44,48-1.16,70.64-.39,12.4-1.21,29.56-1.12,42,.06,8.32,2.79,17.1,9.66,21.18a20.13,20.13,0,0,0,11.83,6.28,4.47,4.47,0,0,0,5-3.27c5.94.69,15.62.87,21.56,1.13,11.54.52,23.08.78,34.63.84,23.26.13,46.53-.2,69.8-.23,23.07,0,299.88-2.36,322.92-1.05,5.45.31,10.9.76,16.35,1.18h1.31c1.68.07,3.37.16,5.05.31a1,1,0,0,1,.05.16c3.82.27,7.63.5,11.45.62,4.3.14-2.09.3-11.05.37a3.21,3.21,0,0,0,3.12,1.75c3.54-.23,21.15-.57,24.67-1a47,47,0,0,0,9.33.38,24.44,24.44,0,0,0,13.44-5.11c5.33-3.15,8.67-9.72,9.47-15.86.67-5.1.23-14.94.12-20.06-.13-5.49-.14-11-.07-16.46.28-22.14,1-46.92,2.5-69,1.55-22.34,2.7-44.67,2.89-67.07C558.92,121.18,558.43,99,558.11,76.89ZM5.71-10.4C3-14.72,2.85-20,2.88-25c0-4.76.55-9.77,3.46-13.72a27.81,27.81,0,0,1,6.52-6.08,3.7,3.7,0,0,0,2.69-1.75c.66-.4,1.31-.79,2-1.16,1-.57,2-1.1,3.06-1.58.86-.11,1.73-.15,2.55-.18a61.43,61.43,0,0,1,13.69.59,23.65,23.65,0,0,1,8.41,3.33,43.65,43.65,0,0,1,6.27,11.46c3.72,9.81,0,21.19-7.29,28.37a1.7,1.7,0,0,0-.37.53L43.68-5A32,32,0,0,1,35.47-.8a33.81,33.81,0,0,1-8.76,2c-.57,0-1.15.05-1.73.06C21.94-.65,18-1.41,14.85-3,11.33-4.75,7.85-7,5.71-10.4ZM549.5,135q-.07,31.31-2.06,62.52c-1.35,20.9-2.09,44.46-2.91,65.4-.46,11.65-.64,23.31-.31,35,.06,2.23.22,9.2.24,11.49a1.77,1.77,0,0,0-.51.51c-1.2,1.9-.66,4.66-1.61,6.77a14.55,14.55,0,0,1-4.28,5.49c-4.83,3.65-11.65,3.92-17.45,4.21-1.47.08-7.38.14-12.74.2-10.72-.1-21.41-1.3-32.1-2-45.24-2.9-344.31,1.06-389.6,1q-19.12,0-38.25-.32c-9.84-.16-24,.33-33.82-1.84a3.59,3.59,0,0,0-1.82-.77C3.44,321.5,3.79,305.71,4,299q.48-16.1,1-32.2c.67-21.63.44-45.93,1-67.56a282.94,282.94,0,0,0-.54-31.9c-.91-10.45-2.95-20.78-3.61-31.26-.67-10.75.62-21.46,1.07-32.2A219,219,0,0,0,2,72.53c-.1-1-.21-2-.33-3,0-1.63.07-3.27.09-4.91.11-6.15.34-12.3.29-18.45,0-5.48-.2-11-.05-16.45,0-.28,0-.57,0-.86a3.4,3.4,0,0,1,.49-1.09,13.56,13.56,0,0,1,3.15-7.57,8.59,8.59,0,0,1,9.19-5.78c3.44.29,6.48,1.9,9.78,2.65,2.62-.3,5.25-.53,7.88-.59.56,0,1.1,0,1.65,0,9.07-1.76,17.07-5.17,26.57-1.36C65.46,17,69.86,19.87,74.8,21.2c6,1.61,12.51,1.72,18.64,2,11.13.47,22.27.12,33.39.46,11.34.34,22.67,1.2,34,1.71,23.09,1,299.91-.93,323-.69,10.71.1,21.36.17,32-.41,7.93-.44,17.44-1.17,24.2,3.81a16.53,16.53,0,0,1,5.81,7.84l.21,0a45.17,45.17,0,0,1,2.54,10c1.2,8.45.67,17.22.7,25.72C549.43,92.81,549.54,113.92,549.5,135Z" transform="translate(12.8 64.51)"/><path class="cls-3" d="M562.59,158c-.21-38.47-.87-75.9-.87-114.37-.82-5.42-2.68-10.68-4.05-16A2.37,2.37,0,0,1,556.46,26c-1.61-6.26-5.37-10.56-11-13.55-1-.55-2.12-1.06-3.2-1.55-.34-.2-.68-.38-1-.55a21.23,21.23,0,0,0-4.57-1.78c-1.46-.59-2.91-1.18-4.35-1.81-15.47-.46-24.24-1.84-39.71-1.91-17.67-.09,17.68.06,0,0C457,4.72,167.75,6.7,132.19,6.32q-14.84-.15-29.67-.18c-5.14,0-10.27.1-15.39.25l0,0c-5,.51-10,.94-15,.25l-.12-.17c-.81-1-2-1.38-2.94-2.17a10.4,10.4,0,0,1-2.29-2.7A14.07,14.07,0,0,1,65-3.71c0-.18,0-.37,0-.56-.08-3.25.37-6.54.27-9.78a79.08,79.08,0,0,0,.61-8c0-.15,0-.29,0-.43a.35.35,0,0,0,0-.18c0-.15,0-.3,0-.45a59.1,59.1,0,0,0-1.06-20.1,47.14,47.14,0,0,0-10.89-14.6,26.72,26.72,0,0,0-7-4.43c-13.51-4.71-29.61-1.93-41.28,6.92l-.14.12a13.87,13.87,0,0,0-2.71,3.64A75.4,75.4,0,0,0-3.72-42v0c-.67,1.51-1.1,3.07-1.86,5.09a38,38,0,0,0-1.89,6.48,2.71,2.71,0,0,1-.06,1c-.14.59-.24,1.18-.33,1.77-.1,1-.15,2.12-.15,3.26a1.11,1.11,0,0,0-.22.33c-.07,1.12-.11,2.25-.19,3.39,0,.72-.12,1.46-.2,2.19,0,1,0,2-.06,3s.21,2.15.28,3.2c.18,3,.34,6.08.46,9.12s.24,6.09.34,9.14c0,.8,0,1.6,0,2.35-.12,2.88-.16,5.77-.12,8.65.06,4.68-3.23,9.33-2.7,14,0,2.35-.07,4.71-.11,7.07-.39,22.7-.68,45.4-1.06,68.1-.77,45.39,3,90.8,2.33,136.19-.35,22.08.25,51.53-.17,73.6.42,3.62,1,7.24,2.73,10.36,2.34,4.21,7,6.19,11.1,8.7,1.51.23,3,.4,4.57.55,6.19.61,12.41.88,18.62,1.24,12.4.73,28.47,1.13,40.89,1.63,24.78,1,45.39-.24,70.17.68,49.5,1.82,278.84.46,328.38,1,13.87.16,41.81.21,55.68.09q8.61-.09,17.22-.25c6.27-.77,12.05-3.08,16-8.06,2.77-11.44,3.6-28.25,4.43-39.61C563.63,246.9,562.85,203.39,562.59,158ZM78,10.76a1.61,1.61,0,0,0,1.24-1.32c6.53.41,13,.81,19.61,1,8.84.18,17.69.36,26.54.46,17.7.2,289.11-2.19,306.81-2l53.09.61c17.84.2-17.85-.15,0,0,9.87.08,7.25.95,17.13,1,7.66,0,21.55,2.23,29.21,2a10.67,10.67,0,0,1,1.82,2,6.72,6.72,0,0,1,.4.75h-.2c-1.14,0-2.25,0-3.36-.15l-.36.1a2.5,2.5,0,0,0-.38.15c-6.33-.26-26.73-.4-33.06-.46-20.23-.16-40.45-.35-60.67.17-40.9,1.07-261.66,1.74-302.57.35C121.71,15,110.15,14.48,98.59,14l-2.54-.13a39.5,39.5,0,0,1-18.78-1.8l-.89-.34A5.77,5.77,0,0,1,78,10.76Zm-63.38-66,.28-.19a1.67,1.67,0,0,0,.79-1.08c1.5-.69,3-1.31,4.55-1.88l1.4-.52.52-.11c2.27-.45,6.15-.47,8.8-1.62a73.27,73.27,0,0,1,8.13.1l.63.2c.94.33,1.84.77,2.74,1.17a45.52,45.52,0,0,1,10.68,7.74,32,32,0,0,1,5.27,6.61A24,24,0,0,1,60.19-41c.09,2.66.29,5.31.64,8,.28,2.25.56,4.5.9,6.73a24.94,24.94,0,0,0,.59,3.51c-.47,1-.92,2-1.32,3-1-9.66.07-20.31-6.2-28.35a23.92,23.92,0,0,0-12-7.85L42.72-56C39-59.27,32.59-58.13,28.06-57.77c-4.25.34-8.67.86-12.53,2.74L14-54.45A2.44,2.44,0,0,1,14.65-55.22ZM-2.47-15.69c-1.2-4-.6-8.53.15-12.66a78.52,78.52,0,0,1,1.9-8A12.88,12.88,0,0,1,.66-39.13,1.91,1.91,0,0,1,.9-40l.67-.93A36.74,36.74,0,0,1,11-50.15l1-.39a2.78,2.78,0,0,1,.51-.32c.53-.27,1.07-.53,1.63-.78,1.82-.62,3.66-1.2,5.5-1.72l1.48-.44a53.09,53.09,0,0,1,6.48-.77,64.72,64.72,0,0,1,6.53-.18,21.75,21.75,0,0,1,5.76,1.27,16.47,16.47,0,0,1,8,6.68c2.92,3.18,5,6,6.22,10.13A37.21,37.21,0,0,1,55.39-29c-.09,3.55.2,7.16-.16,10.68-.23,2.2.42,4.37,0,6.52-.12.26-.24.52-.37.76-.65,1.26-1.32,2.5-2,3.71C51-5.56,50-3.66,48-2.14l-.79.57a23.1,23.1,0,0,1-8.79,5.45c-11.78,4.21-26.32,3.34-35-6.5A25,25,0,0,1-2.47-15.69Zm-.79,344.85a2.16,2.16,0,0,0,.25-.27l.35.39ZM554.93,109.65c0,2.77-.11,5.53-.16,8.3-.88,4.15-1.88,9.94-.51,14.22-.2,4.8,0,9.65,0,14.36,0,9,.08,18,.06,27.05s.1,18-.11,27c-.2,8.3-.56,16.6-.82,24.9a1.76,1.76,0,0,0-.33,1c-.3,11.29.78,22.58,1.07,33.86a215.15,215.15,0,0,1-1.33,31.29,1.69,1.69,0,0,0-.21.77c-.24,4.09-.51,12.87-.76,17a55.83,55.83,0,0,1-4,16.55c-.13.18-.26.35-.41.52a58.77,58.77,0,0,1-5.79,3.11c-1.28.62-2.47,1.19-3.68,1.66l-2.26,0c-6.07.09-26.21.14-32.28.18q-17.68.09-35.37,0c-23.94-.19,26,0,2.1-.65-47.62-1.35-344.77,1.58-392.38,0-13.44-.45-30.55-1-44-1.22q-9.82-.16-19.66-.24l-1.47,0a3.17,3.17,0,0,0-.92-.55l0-.1c-.85-.13-1.66-.25-2.45-.4-3.95-1-7.08-4-9.1-7.53a10.66,10.66,0,0,1-1.3-5.16,2.62,2.62,0,0,1-.61-1.51,12.94,12.94,0,0,1,0-2.06,68.67,68.67,0,0,1,0-14c.66-37.45.23-77.59.67-115,.53-45.4-3.57-90.79-3.74-136.19,0-10.09,3.51-20.17,3.42-30.26A3.1,3.1,0,0,0-1,15c0-1.19,0-2.39,0-3.58.15-.89.33-1.79.54-2.66A17.15,17.15,0,0,1,.64,6.63,7,7,0,0,1,2.92,4.34a1.79,1.79,0,0,0,.84.6C4.83,5.33,5.92,5.68,7,6a38.28,38.28,0,0,0,10.38,5.64,41,41,0,0,1,6,1.13,23.37,23.37,0,0,0,8.86.28,63.5,63.5,0,0,0,8.67-1.56c2.63-.73,5.06-2,7.67-2.79a10.91,10.91,0,0,1,9,1.4l.15.05c.28.12.55.25.82.39,5.27,1,9.37,4.33,14.08,6.5A48.76,48.76,0,0,0,80,19.13c2.76-.07,5,.15,7.71.05a22.57,22.57,0,0,1,2.56.13q13.48.84,27,1.44c20.37.87,294.47-1.17,314.86-.92,40.81.5,7.69,1.87,48.5,1.64q3.87,0,7.74,0a2.48,2.48,0,0,1,1.19-.17l2.58.2H494l.63.16.52,0a2.34,2.34,0,0,1,1.31-.4c1.87,0,3.74-.11,5.6-.23,2.73-.32,19.55-.48,22.25-.5,2-.07,3.93-.09,5.91,0,4.74.26,11.38,1.06,14.56,5,.21.12.42.24.62.37a16.4,16.4,0,0,1,4.26,3.79A12.76,12.76,0,0,1,551,32.29c2.49,9.89,2.91,20,3.11,30.21.13,6.16.25,11.28.38,17.44s-.24,12.78.48,19c0,.15,0,.28.08.41C555,102.78,555,106.22,554.93,109.65Z" transform="translate(12.8 64.51)"/></svg>